<svg width="286" height="53" viewBox="0 0 286 53" fill="none" xmlns="http://www.w3.org/2000/svg">
<rect x="2.5" y="2.5" width="48" height="48" stroke="#262626" stroke-width="5"/>
<rect x="15.8999" y="15.9" width="22.26" height="22.26" fill="#262626"/>
<rect x="39.22" y="8.48" width="5.3" height="5.3" fill="#262626"/>
<path d="M134.186 31.43C133.976 32.24 133.631 33.08 133.151 33.95C132.701 34.82 132.131 35.645 131.441 36.425C130.421 37.595 129.296 38.375 128.066 38.765C126.836 39.155 125.726 39.35 124.736 39.35C121.766 39.35 119.561 38.21 118.121 35.93C116.711 33.65 116.006 30.365 116.006 26.075C116.006 23.825 116.201 21.725 116.591 19.775C117.011 17.825 117.566 16.13 118.256 14.69C118.946 13.22 119.756 12.065 120.686 11.225C121.646 10.385 122.666 9.965 123.746 9.965H124.691C125.231 9.965 125.681 10.04 126.041 10.19C126.431 10.34 126.791 10.535 127.121 10.775C127.481 10.985 127.841 11.225 128.201 11.495C128.561 11.735 129.011 11.975 129.551 12.215C130.451 12.605 131.051 13.325 131.351 14.375C131.651 15.395 131.801 16.49 131.801 17.66C131.801 18.08 131.786 18.515 131.756 18.965C131.756 19.415 131.681 19.835 131.531 20.225C131.381 20.585 131.141 20.9 130.811 21.17C130.481 21.44 130.001 21.605 129.371 21.665C128.501 21.665 127.901 21.365 127.571 20.765C127.241 20.165 127.076 19.52 127.076 18.83C127.076 18.44 127.106 17.975 127.166 17.435C127.226 16.865 127.256 16.295 127.256 15.725C127.256 14.975 127.136 14.315 126.896 13.745C126.686 13.175 126.236 12.89 125.546 12.89C124.436 12.89 123.521 13.295 122.801 14.105C122.111 14.885 121.556 15.89 121.136 17.12C120.746 18.35 120.461 19.715 120.281 21.215C120.131 22.715 120.056 24.17 120.056 25.58C120.056 27.02 120.086 28.355 120.146 29.585C120.236 30.785 120.431 31.865 120.731 32.825C121.031 33.785 121.466 34.625 122.036 35.345C122.606 36.035 123.401 36.605 124.421 37.055C124.841 37.235 125.306 37.325 125.816 37.325C126.566 37.325 127.271 37.16 127.931 36.83C128.621 36.47 129.221 36.005 129.731 35.435C130.241 34.865 130.646 34.22 130.946 33.5C131.246 32.75 131.396 31.985 131.396 31.205C131.396 30.425 131.531 29.735 131.801 29.135C132.101 28.535 132.581 28.235 133.241 28.235C133.721 28.235 134.036 28.385 134.186 28.685C134.336 28.985 134.411 29.33 134.411 29.72C134.411 30.41 134.336 30.98 134.186 31.43ZM149.056 31.655C149.056 31.865 148.981 32.375 148.831 33.185C148.711 33.965 148.471 34.805 148.111 35.705C147.781 36.575 147.316 37.355 146.716 38.045C146.146 38.735 145.411 39.08 144.511 39.08C143.551 39.08 142.786 38.735 142.216 38.045C141.646 37.385 141.211 36.59 140.911 35.66C140.611 34.7 140.416 33.71 140.326 32.69C140.236 31.64 140.191 30.77 140.191 30.08C140.191 29.3 140.236 28.52 140.326 27.74C140.416 26.93 140.476 26.135 140.506 25.355C140.506 25.115 140.386 24.965 140.146 24.905C139.906 24.845 139.681 24.815 139.471 24.815C139.111 24.815 138.886 24.86 138.796 24.95C138.706 25.04 138.646 25.145 138.616 25.265L138.436 26.705C138.316 27.665 138.181 28.595 138.031 29.495C137.911 30.365 137.761 31.145 137.581 31.835C137.431 32.495 137.236 33.035 136.996 33.455C136.786 33.845 136.531 34.04 136.231 34.04H136.186C136.066 34.04 135.946 34.01 135.826 33.95C135.736 33.89 135.691 33.74 135.691 33.5C135.691 33.38 135.721 33.2 135.781 32.96C136.021 31.91 136.171 31.04 136.231 30.35C136.291 29.66 136.336 29.045 136.366 28.505V28.19C136.366 28.04 136.366 27.86 136.366 27.65C136.396 27.44 136.411 27.185 136.411 26.885V25.715C136.411 25.385 136.411 25.04 136.411 24.68C136.411 24.32 136.381 23.93 136.321 23.51L136.186 20.855C136.186 20.675 136.261 20.51 136.411 20.36C136.561 20.21 136.756 20.075 136.996 19.955C137.236 19.835 137.491 19.745 137.761 19.685C138.031 19.625 138.271 19.595 138.481 19.595C138.991 19.595 139.246 19.925 139.246 20.585V20.81L139.201 21.8V22.07C139.201 22.28 139.246 22.415 139.336 22.475C139.426 22.505 139.606 22.55 139.876 22.61H140.011C140.251 22.64 140.641 22.67 141.181 22.7C141.721 22.73 142.261 22.79 142.801 22.88C143.341 22.97 143.806 23.12 144.196 23.33C144.616 23.51 144.826 23.78 144.826 24.14C144.826 24.26 144.796 24.44 144.736 24.68C144.676 24.89 144.601 25.115 144.511 25.355C144.421 25.565 144.346 25.76 144.286 25.94C144.226 26.12 144.196 26.24 144.196 26.3C143.656 28.37 143.386 30.53 143.386 32.78C143.386 32.96 143.401 33.29 143.431 33.77C143.461 34.25 143.521 34.745 143.611 35.255C143.701 35.765 143.836 36.215 144.016 36.605C144.196 36.995 144.421 37.19 144.691 37.19C145.141 37.19 145.546 36.92 145.906 36.38C146.266 35.81 146.581 35.165 146.851 34.445C147.121 33.695 147.331 32.945 147.481 32.195C147.661 31.445 147.781 30.89 147.841 30.53C147.901 30.2 147.991 30.005 148.111 29.945C148.261 29.855 148.396 29.81 148.516 29.81C148.936 29.81 149.146 30.08 149.146 30.62C149.146 30.68 149.131 30.845 149.101 31.115C149.101 31.355 149.086 31.535 149.056 31.655ZM162.237 31.07C162.237 31.82 162.102 32.66 161.832 33.59C161.562 34.52 161.142 35.39 160.572 36.2C160.002 36.98 159.267 37.64 158.367 38.18C157.497 38.72 156.447 38.99 155.217 38.99C154.047 38.99 153.057 38.78 152.247 38.36C151.437 37.94 150.762 37.37 150.222 36.65C149.712 35.93 149.337 35.09 149.097 34.13C148.887 33.14 148.782 32.105 148.782 31.025C148.782 29.975 148.902 28.82 149.142 27.56C149.382 26.3 149.757 25.13 150.267 24.05C150.777 22.94 151.422 22.025 152.202 21.305C152.982 20.555 153.927 20.18 155.037 20.18C155.577 20.18 156.087 20.3 156.567 20.54C157.047 20.75 157.467 21.035 157.827 21.395C158.187 21.755 158.472 22.175 158.682 22.655C158.892 23.135 159.012 23.63 159.042 24.14L159.087 24.77C159.087 25.49 158.967 26.285 158.727 27.155C158.487 27.995 158.142 28.79 157.692 29.54C157.242 30.26 156.687 30.875 156.027 31.385C155.367 31.865 154.617 32.105 153.777 32.105C153.627 32.105 153.432 32.09 153.192 32.06C152.982 32.03 152.772 31.985 152.562 31.925V33.23C152.562 33.44 152.622 33.74 152.742 34.13C152.892 34.52 153.102 34.91 153.372 35.3C153.642 35.66 153.987 35.99 154.407 36.29C154.857 36.56 155.397 36.695 156.027 36.695C156.897 36.695 157.602 36.53 158.142 36.2C158.712 35.84 159.177 35.39 159.537 34.85C159.897 34.31 160.167 33.71 160.347 33.05C160.557 32.36 160.722 31.7 160.842 31.07C160.932 30.65 161.022 30.365 161.112 30.215C161.202 30.065 161.352 29.99 161.562 29.99C162.012 29.99 162.237 30.245 162.237 30.755V31.07ZM156.927 24.095C156.927 23.855 156.852 23.6 156.702 23.33C156.582 23.06 156.342 22.925 155.982 22.925C155.442 22.925 154.977 23.21 154.587 23.78C154.197 24.35 153.867 25.01 153.597 25.76C153.357 26.48 153.177 27.185 153.057 27.875C152.937 28.535 152.877 28.97 152.877 29.18V29.315C152.877 29.585 152.892 29.81 152.922 29.99C152.982 30.14 153.147 30.215 153.417 30.215H153.642C154.242 30.215 154.752 29.99 155.172 29.54C155.592 29.09 155.922 28.55 156.162 27.92C156.432 27.29 156.627 26.645 156.747 25.985C156.867 25.325 156.927 24.785 156.927 24.365V24.095ZM179.946 33.095C179.886 33.515 179.736 34.01 179.496 34.58C179.256 35.15 178.941 35.705 178.551 36.245C178.191 36.755 177.756 37.19 177.246 37.55C176.766 37.91 176.226 38.09 175.626 38.09C174.726 38.09 173.931 37.745 173.241 37.055C172.581 36.365 172.176 35.39 172.026 34.13C171.846 34.61 171.636 35.165 171.396 35.795C171.156 36.425 170.856 37.01 170.496 37.55C170.136 38.09 169.716 38.54 169.236 38.9C168.786 39.29 168.246 39.485 167.616 39.485C167.436 39.485 167.301 39.47 167.211 39.44C167.121 39.41 167.016 39.365 166.896 39.305C166.806 39.275 166.686 39.245 166.536 39.215C166.416 39.185 166.236 39.17 165.996 39.17C165.276 39.17 164.661 38.93 164.151 38.45C163.671 38 163.281 37.415 162.981 36.695C162.681 35.975 162.456 35.195 162.306 34.355C162.186 33.485 162.126 32.675 162.126 31.925C162.126 30.125 162.216 28.415 162.396 26.795C162.606 25.175 162.936 23.75 163.386 22.52C163.836 21.26 164.421 20.27 165.141 19.55C165.861 18.8 166.731 18.425 167.751 18.425C168.351 18.425 168.801 18.485 169.101 18.605C169.431 18.695 169.731 18.815 170.001 18.965C170.271 19.085 170.556 19.22 170.856 19.37C171.186 19.52 171.636 19.64 172.206 19.73C172.836 20.09 173.271 20.525 173.511 21.035C173.781 21.515 173.946 22.04 174.006 22.61C174.096 23.18 174.126 23.78 174.096 24.41C174.066 25.01 174.096 25.61 174.186 26.21C174.186 26.24 174.246 26.285 174.366 26.345C174.516 26.405 174.681 26.48 174.861 26.57C175.041 26.63 175.191 26.735 175.311 26.885C175.461 27.005 175.536 27.17 175.536 27.38V27.56C175.236 28.34 175.056 29.03 174.996 29.63C174.936 30.23 174.906 30.95 174.906 31.79C174.906 32.21 174.921 32.675 174.951 33.185C175.011 33.665 175.086 34.13 175.176 34.58C175.296 35 175.461 35.36 175.671 35.66C175.881 35.93 176.151 36.065 176.481 36.065C176.841 36.065 177.156 35.885 177.426 35.525C177.726 35.165 177.966 34.76 178.146 34.31C178.356 33.83 178.521 33.35 178.641 32.87C178.791 32.39 178.881 32.03 178.911 31.79C178.971 31.43 179.121 31.25 179.361 31.25C179.511 31.25 179.646 31.34 179.766 31.52C179.916 31.67 179.991 31.955 179.991 32.375C179.991 32.495 179.991 32.615 179.991 32.735C179.991 32.825 179.976 32.945 179.946 33.095ZM171.621 25.805C171.621 25.475 171.591 25.085 171.531 24.635C171.471 24.185 171.366 23.765 171.216 23.375C171.066 22.985 170.841 22.655 170.541 22.385C170.241 22.115 169.836 21.98 169.326 21.98C168.486 21.98 167.796 22.37 167.256 23.15C166.746 23.9 166.341 24.8 166.041 25.85C165.741 26.87 165.546 27.935 165.456 29.045C165.366 30.125 165.321 30.98 165.321 31.61C165.321 32.09 165.336 32.675 165.366 33.365C165.426 34.025 165.516 34.655 165.636 35.255C165.756 35.855 165.921 36.365 166.131 36.785C166.371 37.205 166.671 37.415 167.031 37.415C167.901 37.415 168.561 37.085 169.011 36.425C169.491 35.735 169.851 34.895 170.091 33.905C170.331 32.885 170.496 31.805 170.586 30.665C170.706 29.495 170.811 28.43 170.901 27.47C170.961 26.96 171.096 26.645 171.306 26.525C171.516 26.375 171.621 26.27 171.621 26.21V25.805ZM180.031 29.855C180.061 28.325 180.106 26.765 180.166 25.175C180.226 23.585 180.286 22.115 180.346 20.765C180.346 20.525 180.106 20.36 179.626 20.27C179.146 20.18 178.606 20.09 178.006 20C177.406 19.91 176.866 19.775 176.386 19.595C175.906 19.385 175.666 19.055 175.666 18.605C175.666 18.215 176.056 17.99 176.836 17.93C177.616 17.87 178.771 17.84 180.301 17.84C180.421 17.84 180.496 17.66 180.526 17.3C180.586 16.94 180.616 16.49 180.616 15.95C180.646 15.38 180.661 14.78 180.661 14.15C180.691 13.52 180.721 12.935 180.751 12.395C180.781 11.825 180.826 11.36 180.886 11C180.976 10.64 181.081 10.46 181.201 10.46C181.351 10.46 181.621 10.49 182.011 10.55C182.401 10.61 182.806 10.7 183.226 10.82C183.646 10.91 184.006 11.03 184.306 11.18C184.636 11.33 184.801 11.495 184.801 11.675L184.306 17.525C184.306 17.705 184.456 17.84 184.756 17.93C185.086 17.99 185.491 18.035 185.971 18.065C186.481 18.065 187.006 18.065 187.546 18.065C188.116 18.065 188.641 18.11 189.121 18.2C189.631 18.29 190.036 18.44 190.336 18.65C190.666 18.83 190.831 19.115 190.831 19.505C190.831 19.565 190.801 19.67 190.741 19.82C190.681 19.94 190.606 20 190.516 20C190.456 20 190.366 19.955 190.246 19.865C190.156 19.775 189.886 19.73 189.436 19.73C189.316 19.73 188.986 19.745 188.446 19.775C187.906 19.805 187.336 19.85 186.736 19.91C186.136 19.97 185.581 20.045 185.071 20.135C184.591 20.195 184.321 20.285 184.261 20.405C184.231 20.465 184.186 20.825 184.126 21.485C184.096 22.115 184.051 22.955 183.991 24.005C183.961 25.055 183.931 26.27 183.901 27.65C183.871 29 183.856 30.425 183.856 31.925C183.856 32.495 183.886 33.05 183.946 33.59C184.006 34.13 184.096 34.625 184.216 35.075C184.336 35.495 184.486 35.84 184.666 36.11C184.876 36.38 185.116 36.515 185.386 36.515C185.776 36.515 186.136 36.35 186.466 36.02C186.796 35.69 187.096 35.24 187.366 34.67C187.636 34.1 187.876 33.455 188.086 32.735C188.296 32.015 188.476 31.28 188.626 30.53C188.716 30.08 188.821 29.765 188.941 29.585C189.061 29.375 189.241 29.27 189.481 29.27C189.691 29.27 189.871 29.345 190.021 29.495C190.201 29.615 190.291 29.915 190.291 30.395C190.291 30.695 190.276 30.89 190.246 30.98C190.156 31.52 189.976 32.27 189.706 33.23C189.466 34.16 189.121 35.09 188.671 36.02C188.251 36.92 187.726 37.715 187.096 38.405C186.466 39.095 185.731 39.44 184.891 39.44C184.081 39.44 183.376 39.2 182.776 38.72C182.176 38.27 181.666 37.64 181.246 36.83C180.856 35.99 180.556 35.015 180.346 33.905C180.136 32.765 180.031 31.55 180.031 30.26V29.855ZM203.405 31.07C203.405 31.82 203.27 32.66 203 33.59C202.73 34.52 202.31 35.39 201.74 36.2C201.17 36.98 200.435 37.64 199.535 38.18C198.665 38.72 197.615 38.99 196.385 38.99C195.215 38.99 194.225 38.78 193.415 38.36C192.605 37.94 191.93 37.37 191.39 36.65C190.88 35.93 190.505 35.09 190.265 34.13C190.055 33.14 189.95 32.105 189.95 31.025C189.95 29.975 190.07 28.82 190.31 27.56C190.55 26.3 190.925 25.13 191.435 24.05C191.945 22.94 192.59 22.025 193.37 21.305C194.15 20.555 195.095 20.18 196.205 20.18C196.745 20.18 197.255 20.3 197.735 20.54C198.215 20.75 198.635 21.035 198.995 21.395C199.355 21.755 199.64 22.175 199.85 22.655C200.06 23.135 200.18 23.63 200.21 24.14L200.255 24.77C200.255 25.49 200.135 26.285 199.895 27.155C199.655 27.995 199.31 28.79 198.86 29.54C198.41 30.26 197.855 30.875 197.195 31.385C196.535 31.865 195.785 32.105 194.945 32.105C194.795 32.105 194.6 32.09 194.36 32.06C194.15 32.03 193.94 31.985 193.73 31.925V33.23C193.73 33.44 193.79 33.74 193.91 34.13C194.06 34.52 194.27 34.91 194.54 35.3C194.81 35.66 195.155 35.99 195.575 36.29C196.025 36.56 196.565 36.695 197.195 36.695C198.065 36.695 198.77 36.53 199.31 36.2C199.88 35.84 200.345 35.39 200.705 34.85C201.065 34.31 201.335 33.71 201.515 33.05C201.725 32.36 201.89 31.7 202.01 31.07C202.1 30.65 202.19 30.365 202.28 30.215C202.37 30.065 202.52 29.99 202.73 29.99C203.18 29.99 203.405 30.245 203.405 30.755V31.07ZM198.095 24.095C198.095 23.855 198.02 23.6 197.87 23.33C197.75 23.06 197.51 22.925 197.15 22.925C196.61 22.925 196.145 23.21 195.755 23.78C195.365 24.35 195.035 25.01 194.765 25.76C194.525 26.48 194.345 27.185 194.225 27.875C194.105 28.535 194.045 28.97 194.045 29.18V29.315C194.045 29.585 194.06 29.81 194.09 29.99C194.15 30.14 194.315 30.215 194.585 30.215H194.81C195.41 30.215 195.92 29.99 196.34 29.54C196.76 29.09 197.09 28.55 197.33 27.92C197.6 27.29 197.795 26.645 197.915 25.985C198.035 25.325 198.095 24.785 198.095 24.365V24.095ZM237.228 18.605C237.228 20.255 236.943 21.86 236.373 23.42C235.833 24.95 235.083 26.315 234.123 27.515C233.163 28.715 232.038 29.69 230.748 30.44C229.488 31.16 228.138 31.52 226.698 31.52C226.338 31.52 225.978 31.43 225.618 31.25C225.258 31.04 224.883 30.815 224.493 30.575L224.268 30.44C224.208 31.16 224.133 32.045 224.043 33.095C223.983 34.115 223.953 35.255 223.953 36.515C223.953 36.725 223.953 36.905 223.953 37.055C223.953 37.205 223.953 37.34 223.953 37.46C223.983 37.58 223.998 37.7 223.998 37.82C223.998 37.94 223.998 38.105 223.998 38.315C223.998 38.645 224.073 38.975 224.223 39.305C224.403 39.635 224.493 39.83 224.493 39.89C224.493 40.16 224.313 40.31 223.953 40.34C223.593 40.4 223.368 40.43 223.278 40.43C222.498 40.43 221.883 40.31 221.433 40.07C221.013 39.83 220.698 39.32 220.488 38.54C220.278 37.76 220.143 36.635 220.083 35.165C220.053 33.665 220.038 31.685 220.038 29.225C220.038 27.155 220.083 25.16 220.173 23.24C220.263 21.32 220.368 19.58 220.488 18.02C220.638 16.43 220.773 15.065 220.893 13.925C221.043 12.755 221.163 11.885 221.253 11.315C220.893 11.375 220.413 11.51 219.813 11.72C219.243 11.9 218.628 12.125 217.968 12.395C217.308 12.665 216.633 12.98 215.943 13.34C215.253 13.7 214.623 14.075 214.053 14.465C213.513 14.855 213.078 15.26 212.748 15.68C212.388 16.07 212.208 16.46 212.208 16.85L212.973 19.37C212.973 19.61 212.928 19.925 212.838 20.315C212.748 20.675 212.493 20.855 212.073 20.855C211.473 20.855 210.963 20.75 210.543 20.54C210.093 20.3 209.733 20.015 209.463 19.685C209.163 19.325 208.938 18.95 208.788 18.56C208.638 18.17 208.563 17.81 208.563 17.48C208.563 16.55 208.893 15.68 209.553 14.87C210.183 14.06 211.023 13.325 212.073 12.665C213.093 12.005 214.263 11.405 215.583 10.865C216.903 10.325 218.238 9.875 219.588 9.515C220.938 9.155 222.228 8.885 223.458 8.705C224.718 8.495 225.798 8.39 226.698 8.39C227.748 8.39 228.783 8.465 229.803 8.615C230.853 8.735 231.888 9.05 232.908 9.56C233.988 10.1 234.813 10.85 235.383 11.81C235.983 12.77 236.418 13.73 236.688 14.69C236.958 15.65 237.108 16.505 237.138 17.255C237.198 18.005 237.228 18.455 237.228 18.605ZM234.078 16.67C234.078 15.26 233.748 14.165 233.088 13.385C232.458 12.575 231.663 11.975 230.703 11.585C229.773 11.195 228.783 10.97 227.733 10.91C226.683 10.82 225.738 10.775 224.898 10.775C224.718 10.775 224.403 10.805 223.953 10.865C223.533 10.895 222.978 10.97 222.288 11.09C223.278 11.33 223.983 11.66 224.403 12.08C224.823 12.5 225.018 12.875 224.988 13.205L224.493 25.94C224.493 26.99 224.583 27.77 224.763 28.28C224.943 28.79 225.453 29.045 226.293 29.045C227.103 29.045 227.958 28.61 228.858 27.74C229.788 26.84 230.628 25.76 231.378 24.5C232.158 23.21 232.803 21.86 233.313 20.45C233.823 19.01 234.078 17.75 234.078 16.67ZM255.247 25.13C255.367 24.92 255.577 24.815 255.877 24.815C256.027 24.815 256.132 24.905 256.192 25.085C256.252 25.265 256.282 25.415 256.282 25.535C256.252 26.465 256.042 27.305 255.652 28.055C255.292 28.775 254.902 29.405 254.482 29.945C254.242 30.275 253.972 30.575 253.672 30.845C253.402 31.115 253.117 31.37 252.817 31.61C252.787 32.12 252.757 32.48 252.727 32.69C252.727 32.87 252.712 33.02 252.682 33.14C252.622 33.59 252.472 34.16 252.232 34.85C251.992 35.54 251.647 36.215 251.197 36.875C250.777 37.535 250.252 38.09 249.622 38.54C249.022 39.02 248.317 39.26 247.507 39.26C247.237 39.26 246.922 39.23 246.562 39.17C246.232 39.11 245.887 39.02 245.527 38.9C245.167 38.81 244.822 38.69 244.492 38.54C244.162 38.42 243.877 38.285 243.637 38.135C242.887 37.715 242.272 37.22 241.792 36.65C241.312 36.08 240.937 35.48 240.667 34.85C240.427 34.19 240.262 33.53 240.172 32.87C240.082 32.18 240.037 31.52 240.037 30.89C240.037 29.81 240.142 28.715 240.352 27.605C240.592 26.495 240.877 25.43 241.207 24.41C241.537 23.39 241.912 22.475 242.332 21.665C242.752 20.855 243.157 20.225 243.547 19.775C243.937 19.355 244.372 19.07 244.852 18.92C245.332 18.74 245.767 18.65 246.157 18.65C246.637 18.65 247.117 18.77 247.597 19.01C248.077 19.25 248.542 19.55 248.992 19.91C249.442 20.27 249.877 20.69 250.297 21.17C250.747 21.62 251.167 22.07 251.557 22.52C251.857 22.85 252.082 23.39 252.232 24.14C252.382 24.86 252.502 25.595 252.592 26.345C252.652 26.765 252.697 27.215 252.727 27.695C252.757 28.175 252.772 28.67 252.772 29.18C253.222 28.82 253.582 28.445 253.852 28.055C254.122 27.635 254.332 27.245 254.482 26.885C254.662 26.525 254.797 26.195 254.887 25.895C255.007 25.565 255.127 25.31 255.247 25.13ZM250.162 29C250.162 28.88 250.147 28.61 250.117 28.19C250.117 27.77 250.087 27.275 250.027 26.705C249.997 26.135 249.922 25.55 249.802 24.95C249.712 24.32 249.562 23.75 249.352 23.24C249.172 22.73 248.932 22.31 248.632 21.98C248.332 21.62 247.957 21.44 247.507 21.44C247.057 21.44 246.622 21.62 246.202 21.98C245.782 22.34 245.407 22.805 245.077 23.375C244.747 23.945 244.477 24.59 244.267 25.31C244.087 26.03 243.997 26.735 243.997 27.425C243.997 28.625 244.237 29.51 244.717 30.08C245.197 30.62 246.022 30.89 247.192 30.89C248.062 30.89 248.767 30.755 249.307 30.485C249.877 30.215 250.162 30.005 250.162 29.855V29ZM249.937 32.69C249.577 32.93 249.082 33.11 248.452 33.23C247.822 33.35 247.297 33.41 246.877 33.41C246.067 33.41 245.437 33.35 244.987 33.23C244.567 33.11 244.102 32.87 243.592 32.51L243.547 33.455C243.547 33.785 243.592 34.13 243.682 34.49C243.772 34.85 243.907 35.18 244.087 35.48C244.297 35.78 244.582 36.035 244.942 36.245C245.302 36.425 245.752 36.515 246.292 36.515C246.952 36.515 247.507 36.395 247.957 36.155C248.437 35.885 248.812 35.555 249.082 35.165C249.382 34.775 249.592 34.355 249.712 33.905C249.862 33.455 249.937 33.05 249.937 32.69ZM266.909 35.21C266.909 35.93 266.669 36.485 266.189 36.875C265.709 37.265 265.154 37.55 264.524 37.73C263.924 37.91 263.309 38.015 262.679 38.045C262.079 38.105 261.644 38.135 261.374 38.135C260.954 38.135 260.429 38.09 259.799 38C259.199 37.91 258.599 37.775 257.999 37.595C257.429 37.385 256.934 37.1 256.514 36.74C256.124 36.38 255.929 35.93 255.929 35.39C255.929 35.06 256.049 34.835 256.289 34.715C256.559 34.565 256.814 34.49 257.054 34.49C257.384 34.49 257.699 34.61 257.999 34.85C258.329 35.09 258.659 35.345 258.989 35.615C259.349 35.885 259.739 36.14 260.159 36.38C260.579 36.62 261.059 36.74 261.599 36.74C261.839 36.74 262.154 36.665 262.544 36.515C262.964 36.335 263.174 36.035 263.174 35.615C263.174 35.195 262.994 34.79 262.634 34.4C262.304 34.01 261.869 33.605 261.329 33.185C260.819 32.765 260.264 32.33 259.664 31.88C259.064 31.43 258.494 30.95 257.954 30.44C257.444 29.9 257.009 29.315 256.649 28.685C256.319 28.055 256.154 27.365 256.154 26.615C256.154 25.565 256.484 24.68 257.144 23.96C257.834 23.24 258.629 22.67 259.529 22.25C260.459 21.83 261.404 21.53 262.364 21.35C263.324 21.17 264.074 21.08 264.614 21.08C265.124 21.08 265.634 21.185 266.144 21.395C266.654 21.605 266.909 22.01 266.909 22.61C266.909 22.79 266.864 23.06 266.774 23.42C266.714 23.75 266.594 24.08 266.414 24.41C266.264 24.74 266.054 25.04 265.784 25.31C265.514 25.55 265.169 25.67 264.749 25.67C264.629 25.67 264.509 25.625 264.389 25.535C264.269 25.415 264.134 25.295 263.984 25.175C263.834 25.025 263.669 24.905 263.489 24.815C263.339 24.695 263.159 24.635 262.949 24.635C261.899 24.635 261.164 24.95 260.744 25.58C260.324 26.18 260.114 26.825 260.114 27.515C260.114 28.115 260.459 28.745 261.149 29.405C261.869 30.065 262.649 30.725 263.489 31.385C264.359 32.045 265.139 32.705 265.829 33.365C266.549 33.995 266.909 34.61 266.909 35.21ZM269.003 29.855C269.033 28.325 269.078 26.765 269.138 25.175C269.198 23.585 269.258 22.115 269.318 20.765C269.318 20.525 269.078 20.36 268.598 20.27C268.118 20.18 267.578 20.09 266.978 20C266.378 19.91 265.838 19.775 265.358 19.595C264.878 19.385 264.638 19.055 264.638 18.605C264.638 18.215 265.028 17.99 265.808 17.93C266.588 17.87 267.743 17.84 269.273 17.84C269.393 17.84 269.468 17.66 269.498 17.3C269.558 16.94 269.588 16.49 269.588 15.95C269.618 15.38 269.633 14.78 269.633 14.15C269.663 13.52 269.693 12.935 269.723 12.395C269.753 11.825 269.798 11.36 269.858 11C269.948 10.64 270.053 10.46 270.173 10.46C270.323 10.46 270.593 10.49 270.983 10.55C271.373 10.61 271.778 10.7 272.198 10.82C272.618 10.91 272.978 11.03 273.278 11.18C273.608 11.33 273.773 11.495 273.773 11.675L273.278 17.525C273.278 17.705 273.428 17.84 273.728 17.93C274.058 17.99 274.463 18.035 274.943 18.065C275.453 18.065 275.978 18.065 276.518 18.065C277.088 18.065 277.613 18.11 278.093 18.2C278.603 18.29 279.008 18.44 279.308 18.65C279.638 18.83 279.803 19.115 279.803 19.505C279.803 19.565 279.773 19.67 279.713 19.82C279.653 19.94 279.578 20 279.488 20C279.428 20 279.338 19.955 279.218 19.865C279.128 19.775 278.858 19.73 278.408 19.73C278.288 19.73 277.958 19.745 277.418 19.775C276.878 19.805 276.308 19.85 275.708 19.91C275.108 19.97 274.553 20.045 274.043 20.135C273.563 20.195 273.293 20.285 273.233 20.405C273.203 20.465 273.158 20.825 273.098 21.485C273.068 22.115 273.023 22.955 272.963 24.005C272.933 25.055 272.903 26.27 272.873 27.65C272.843 29 272.828 30.425 272.828 31.925C272.828 32.495 272.858 33.05 272.918 33.59C272.978 34.13 273.068 34.625 273.188 35.075C273.308 35.495 273.458 35.84 273.638 36.11C273.848 36.38 274.088 36.515 274.358 36.515C274.748 36.515 275.108 36.35 275.438 36.02C275.768 35.69 276.068 35.24 276.338 34.67C276.608 34.1 276.848 33.455 277.058 32.735C277.268 32.015 277.448 31.28 277.598 30.53C277.688 30.08 277.793 29.765 277.913 29.585C278.033 29.375 278.213 29.27 278.453 29.27C278.663 29.27 278.843 29.345 278.993 29.495C279.173 29.615 279.263 29.915 279.263 30.395C279.263 30.695 279.248 30.89 279.218 30.98C279.128 31.52 278.948 32.27 278.678 33.23C278.438 34.16 278.093 35.09 277.643 36.02C277.223 36.92 276.698 37.715 276.068 38.405C275.438 39.095 274.703 39.44 273.863 39.44C273.053 39.44 272.348 39.2 271.748 38.72C271.148 38.27 270.638 37.64 270.218 36.83C269.828 35.99 269.528 35.015 269.318 33.905C269.108 32.765 269.003 31.55 269.003 30.26V29.855Z" fill="#262626"/>
<rect x="85" y="5" width="1.66275" height="45" fill="#2A2A2A"/>
</svg>
