<svg width="164" height="35" viewBox="0 0 164 35" fill="none" xmlns="http://www.w3.org/2000/svg">
<rect x="1.5" y="3.5" width="26" height="26" stroke="#262626" stroke-width="3"/>
<rect x="8.69995" y="10.7" width="12.18" height="12.18" fill="#262626"/>
<rect x="21.46" y="6.64001" width="2.9" height="2.9" fill="#262626"/>
<path d="M93.425 13.225C93.425 14.1417 93.2667 15.0333 92.95 15.9C92.65 16.75 92.2333 17.5083 91.7 18.175C91.1667 18.8417 90.5417 19.3833 89.825 19.8C89.125 20.2 88.375 20.4 87.575 20.4C87.375 20.4 87.175 20.35 86.975 20.25C86.775 20.1333 86.5667 20.0083 86.35 19.875L86.225 19.8C86.1917 20.2 86.15 20.6917 86.1 21.275C86.0667 21.8417 86.05 22.475 86.05 23.175C86.05 23.2917 86.05 23.3917 86.05 23.475C86.05 23.5583 86.05 23.6333 86.05 23.7C86.0667 23.7667 86.075 23.8333 86.075 23.9C86.075 23.9667 86.075 24.0583 86.075 24.175C86.075 24.3583 86.1167 24.5417 86.2 24.725C86.3 24.9083 86.35 25.0167 86.35 25.05C86.35 25.2 86.25 25.2833 86.05 25.3C85.85 25.3333 85.725 25.35 85.675 25.35C85.2417 25.35 84.9 25.2833 84.65 25.15C84.4167 25.0167 84.2417 24.7333 84.125 24.3C84.0083 23.8667 83.9333 23.2417 83.9 22.425C83.8833 21.5917 83.875 20.4917 83.875 19.125C83.875 17.975 83.9 16.8667 83.95 15.8C84 14.7333 84.0583 13.7667 84.125 12.9C84.2083 12.0167 84.2833 11.2583 84.35 10.625C84.4333 9.975 84.5 9.49167 84.55 9.175C84.35 9.20833 84.0833 9.28333 83.75 9.4C83.4333 9.5 83.0917 9.625 82.725 9.775C82.3583 9.925 81.9833 10.1 81.6 10.3C81.2167 10.5 80.8667 10.7083 80.55 10.925C80.25 11.1417 80.0083 11.3667 79.825 11.6C79.625 11.8167 79.525 12.0333 79.525 12.25L79.95 13.65C79.95 13.7833 79.925 13.9583 79.875 14.175C79.825 14.375 79.6833 14.475 79.45 14.475C79.1167 14.475 78.8333 14.4167 78.6 14.3C78.35 14.1667 78.15 14.0083 78 13.825C77.8333 13.625 77.7083 13.4167 77.625 13.2C77.5417 12.9833 77.5 12.7833 77.5 12.6C77.5 12.0833 77.6833 11.6 78.05 11.15C78.4 10.7 78.8667 10.2917 79.45 9.925C80.0167 9.55833 80.6667 9.225 81.4 8.925C82.1333 8.625 82.875 8.375 83.625 8.175C84.375 7.975 85.0917 7.825 85.775 7.725C86.475 7.60833 87.075 7.55 87.575 7.55C88.1583 7.55 88.7333 7.59167 89.3 7.675C89.8833 7.74167 90.4583 7.91667 91.025 8.2C91.625 8.5 92.0833 8.91667 92.4 9.45C92.7333 9.98333 92.975 10.5167 93.125 11.05C93.275 11.5833 93.3583 12.0583 93.375 12.475C93.4083 12.8917 93.425 13.1417 93.425 13.225ZM91.675 12.15C91.675 11.3667 91.4917 10.7583 91.125 10.325C90.775 9.875 90.3333 9.54167 89.8 9.325C89.2833 9.10833 88.7333 8.98333 88.15 8.95C87.5667 8.9 87.0417 8.875 86.575 8.875C86.475 8.875 86.3 8.89167 86.05 8.925C85.8167 8.94167 85.5083 8.98333 85.125 9.05C85.675 9.18333 86.0667 9.36667 86.3 9.6C86.5333 9.83333 86.6417 10.0417 86.625 10.225L86.35 17.3C86.35 17.8833 86.4 18.3167 86.5 18.6C86.6 18.8833 86.8833 19.025 87.35 19.025C87.8 19.025 88.275 18.7833 88.775 18.3C89.2917 17.8 89.7583 17.2 90.175 16.5C90.6083 15.7833 90.9667 15.0333 91.25 14.25C91.5333 13.45 91.675 12.75 91.675 12.15ZM98.4357 12.425C98.4357 12.5417 98.3774 12.6417 98.2607 12.725C98.1441 12.7917 98.0107 12.8417 97.8607 12.875C97.7274 12.9083 97.5941 12.9333 97.4607 12.95C97.3274 12.9667 97.2441 12.975 97.2107 12.975C96.8607 12.975 96.5107 12.875 96.1607 12.675C95.8274 12.475 95.5191 12.1583 95.2357 11.725C95.2024 11.675 95.1524 11.6083 95.0857 11.525C95.0191 11.4417 94.9857 11.3833 94.9857 11.35C94.9857 11.2667 95.0441 11.1917 95.1607 11.125C95.2941 11.0583 95.4357 10.9917 95.5857 10.925C95.7524 10.8583 95.9024 10.8083 96.0357 10.775C96.1857 10.7417 96.2857 10.725 96.3357 10.725C96.6691 10.725 96.9941 10.8083 97.3107 10.975C97.6441 11.1417 97.9107 11.45 98.1107 11.9C98.1441 11.95 98.2024 12.0417 98.2857 12.175C98.3857 12.2917 98.4357 12.375 98.4357 12.425ZM100.986 20C100.936 20.4 100.844 20.8167 100.711 21.25C100.577 21.6833 100.386 22.0917 100.136 22.475C99.9024 22.8417 99.6024 23.15 99.2357 23.4C98.8691 23.6333 98.4191 23.75 97.8857 23.75C97.4691 23.75 97.0441 23.6083 96.6107 23.325C96.1774 23.025 95.8774 22.6333 95.7107 22.15C95.5607 21.6667 95.4857 21.2 95.4857 20.75C95.4857 20.6167 95.4941 20.4167 95.5107 20.15C95.5274 19.8833 95.5357 19.5583 95.5357 19.175V16.425C95.5357 16.2917 95.5274 16.15 95.5107 16C95.5107 15.85 95.4941 15.7083 95.4607 15.575C95.4441 15.5083 95.4107 15.4333 95.3607 15.35C95.3274 15.2667 95.3107 15.2083 95.3107 15.175C95.3107 15.1083 95.3524 15.0583 95.4357 15.025C95.5191 14.975 95.6107 14.9417 95.7107 14.925C95.8107 14.9083 95.9024 14.9 95.9857 14.9C96.0857 14.9 96.1357 14.9 96.1357 14.9C96.1857 14.9 96.3024 14.9083 96.4857 14.925C96.6691 14.925 96.8607 14.95 97.0607 15C97.2607 15.05 97.4357 15.1333 97.5857 15.25C97.7524 15.35 97.8357 15.5 97.8357 15.7C97.8524 15.75 97.8191 15.8417 97.7357 15.975C97.6691 16.1083 97.6024 16.3417 97.5357 16.675C97.5191 16.8083 97.5024 16.9333 97.4857 17.05C97.4691 17.15 97.4524 17.2667 97.4357 17.4C97.4191 17.5333 97.4024 17.7 97.3857 17.9C97.3691 18.0833 97.3524 18.325 97.3357 18.625V20.125C97.3357 20.3917 97.3441 20.6667 97.3607 20.95C97.3774 21.2167 97.4107 21.4667 97.4607 21.7C97.5274 21.9167 97.6274 22.1 97.7607 22.25C97.8941 22.3833 98.0691 22.45 98.2857 22.45C98.6024 22.45 98.8524 22.3583 99.0357 22.175C99.2191 21.9917 99.3607 21.8333 99.4607 21.7C99.6441 21.45 99.7857 21.1417 99.8857 20.775C99.9857 20.3917 100.077 20 100.161 19.6L100.211 19.35C100.261 19.1 100.411 18.975 100.661 18.975C100.911 18.975 101.036 19.15 101.036 19.5V19.625L100.986 20ZM106.138 18.45C106.138 18.4833 106.163 18.6083 106.213 18.825C106.28 19.0417 106.363 19.3083 106.463 19.625C106.58 19.925 106.713 20.2583 106.863 20.625C107.013 20.975 107.18 21.3083 107.363 21.625C107.547 21.925 107.738 22.175 107.938 22.375C108.138 22.575 108.347 22.675 108.563 22.675C108.897 22.675 109.172 22.5833 109.388 22.4C109.622 22.2167 109.813 21.9833 109.963 21.7C110.13 21.4 110.255 21.0833 110.338 20.75C110.438 20.4 110.513 20.0667 110.563 19.75C110.597 19.6 110.638 19.475 110.688 19.375C110.738 19.275 110.805 19.225 110.888 19.225C111.005 19.225 111.097 19.2583 111.163 19.325C111.23 19.3917 111.272 19.475 111.288 19.575C111.322 19.675 111.338 19.7833 111.338 19.9C111.355 20.0167 111.363 20.125 111.363 20.225V20.3C111.347 20.4667 111.288 20.7583 111.188 21.175C111.088 21.575 110.913 21.9917 110.663 22.425C110.43 22.8417 110.097 23.2167 109.663 23.55C109.247 23.8667 108.713 24.0333 108.063 24.05H108.013C107.147 24.05 106.447 23.775 105.913 23.225C105.38 22.6583 104.897 21.7417 104.463 20.475C104.413 20.4917 104.263 20.7 104.013 21.1C103.763 21.5 103.497 21.9583 103.213 22.475C102.93 22.9917 102.672 23.5 102.438 24C102.205 24.5167 102.088 24.8917 102.088 25.125V25.175C102.088 25.2417 102.13 25.2917 102.213 25.325C102.197 25.4083 102.13 25.4667 102.013 25.5C101.913 25.55 101.813 25.575 101.713 25.575C101.697 25.575 101.613 25.5667 101.463 25.55C101.33 25.5333 101.188 25.5 101.038 25.45C100.888 25.4 100.747 25.3333 100.613 25.25C100.497 25.1833 100.438 25.0917 100.438 24.975L103.838 18.8C103.838 18.7 103.805 18.4667 103.738 18.1C103.688 17.7333 103.605 17.35 103.488 16.95C103.388 16.55 103.255 16.1917 103.088 15.875C102.922 15.5583 102.73 15.4 102.513 15.4C102.247 15.4 102.022 15.4917 101.838 15.675C101.672 15.8583 101.53 16.075 101.413 16.325C101.297 16.575 101.205 16.825 101.138 17.075C101.088 17.3083 101.047 17.4833 101.013 17.6C100.947 17.75 100.78 17.925 100.513 18.125C100.263 18.3083 100.055 18.4 99.8883 18.4C99.7049 18.4 99.6133 18.3167 99.6133 18.15C99.6133 17.7667 99.7549 17.3083 100.038 16.775C100.322 16.2417 100.672 15.725 101.088 15.225C101.522 14.725 101.972 14.3 102.438 13.95C102.922 13.6 103.355 13.425 103.738 13.425C104.088 13.425 104.372 13.5583 104.588 13.825C104.822 14.075 105.013 14.375 105.163 14.725C105.313 15.075 105.422 15.4333 105.488 15.8C105.572 16.1667 105.638 16.4667 105.688 16.7C105.755 16.6333 105.88 16.5 106.063 16.3C106.263 16.0833 106.488 15.8333 106.738 15.55C107.005 15.25 107.288 14.9417 107.588 14.625C107.888 14.2917 108.172 13.9917 108.438 13.725C108.722 13.4417 108.972 13.2167 109.188 13.05C109.405 12.8667 109.563 12.775 109.663 12.775C109.913 12.775 110.18 12.8667 110.463 13.05C110.763 13.2333 110.913 13.4833 110.913 13.8C110.913 13.9 110.872 13.95 110.788 13.95C110.738 13.95 110.688 13.9333 110.638 13.9C110.605 13.85 110.555 13.825 110.488 13.825C110.388 13.825 110.263 13.8667 110.113 13.95C109.963 14.0333 109.747 14.225 109.463 14.525C109.263 14.7417 108.972 15.0583 108.588 15.475C108.222 15.8917 107.855 16.3167 107.488 16.75C107.122 17.1667 106.805 17.5417 106.538 17.875C106.272 18.2083 106.138 18.4 106.138 18.45ZM118.678 20.15C118.678 20.5667 118.603 21.0333 118.453 21.55C118.303 22.0667 118.069 22.55 117.753 23C117.436 23.4333 117.028 23.8 116.528 24.1C116.044 24.4 115.461 24.55 114.778 24.55C114.128 24.55 113.578 24.4333 113.128 24.2C112.678 23.9667 112.303 23.65 112.003 23.25C111.719 22.85 111.511 22.3833 111.378 21.85C111.261 21.3 111.203 20.725 111.203 20.125C111.203 19.5417 111.269 18.9 111.403 18.2C111.536 17.5 111.744 16.85 112.028 16.25C112.311 15.6333 112.669 15.125 113.103 14.725C113.536 14.3083 114.061 14.1 114.678 14.1C114.978 14.1 115.261 14.1667 115.528 14.3C115.794 14.4167 116.028 14.575 116.228 14.775C116.428 14.975 116.586 15.2083 116.703 15.475C116.819 15.7417 116.886 16.0167 116.903 16.3L116.928 16.65C116.928 17.05 116.861 17.4917 116.728 17.975C116.594 18.4417 116.403 18.8833 116.153 19.3C115.903 19.7 115.594 20.0417 115.228 20.325C114.861 20.5917 114.444 20.725 113.978 20.725C113.894 20.725 113.786 20.7167 113.653 20.7C113.536 20.6833 113.419 20.6583 113.303 20.625V21.35C113.303 21.4667 113.336 21.6333 113.403 21.85C113.486 22.0667 113.603 22.2833 113.753 22.5C113.903 22.7 114.094 22.8833 114.328 23.05C114.578 23.2 114.878 23.275 115.228 23.275C115.711 23.275 116.103 23.1833 116.403 23C116.719 22.8 116.978 22.55 117.178 22.25C117.378 21.95 117.528 21.6167 117.628 21.25C117.744 20.8667 117.836 20.5 117.903 20.15C117.953 19.9167 118.003 19.7583 118.053 19.675C118.103 19.5917 118.186 19.55 118.303 19.55C118.553 19.55 118.678 19.6917 118.678 19.975V20.15ZM115.728 16.275C115.728 16.1417 115.686 16 115.603 15.85C115.536 15.7 115.403 15.625 115.203 15.625C114.903 15.625 114.644 15.7833 114.428 16.1C114.211 16.4167 114.028 16.7833 113.878 17.2C113.744 17.6 113.644 17.9917 113.578 18.375C113.511 18.7417 113.478 18.9833 113.478 19.1V19.175C113.478 19.325 113.486 19.45 113.503 19.55C113.536 19.6333 113.628 19.675 113.778 19.675H113.903C114.236 19.675 114.519 19.55 114.753 19.3C114.986 19.05 115.169 18.75 115.303 18.4C115.453 18.05 115.561 17.6917 115.628 17.325C115.694 16.9583 115.728 16.6583 115.728 16.425V16.275ZM123.716 23.275C123.716 23.475 123.641 23.65 123.491 23.8C123.358 23.95 123.183 24.0833 122.966 24.2C122.766 24.3167 122.549 24.4 122.316 24.45C122.099 24.5167 121.916 24.55 121.766 24.55C121.483 24.55 121.166 24.5167 120.816 24.45C120.483 24.4 120.199 24.2833 119.966 24.1C119.699 23.8833 119.474 23.5417 119.291 23.075C119.124 22.5917 118.991 22.025 118.891 21.375C118.808 20.7083 118.749 19.975 118.716 19.175C118.683 18.3583 118.666 17.5083 118.666 16.625C118.666 16.2583 118.674 15.85 118.691 15.4C118.724 14.95 118.758 14.4833 118.791 14C118.824 13.5 118.866 13.0083 118.916 12.525C118.966 12.025 119.016 11.55 119.066 11.1C119.116 10.7833 119.174 10.4417 119.241 10.075C119.308 9.70833 119.374 9.35833 119.441 9.025C119.524 8.69167 119.616 8.39167 119.716 8.125C119.816 7.85833 119.924 7.66667 120.041 7.55C120.174 7.41667 120.349 7.33333 120.566 7.3C120.799 7.25 121.008 7.225 121.191 7.225C121.574 7.225 121.883 7.325 122.116 7.525C122.349 7.725 122.524 8 122.641 8.35C122.774 8.68333 122.858 9.075 122.891 9.525C122.941 9.95833 122.966 10.425 122.966 10.925C122.966 11.6917 122.941 12.525 122.891 13.425C122.841 14.3083 122.733 15.2 122.566 16.1C122.416 17 122.191 17.875 121.891 18.725C121.608 19.575 121.224 20.35 120.741 21.05C120.758 21.2833 120.783 21.5583 120.816 21.875C120.866 22.175 120.933 22.4583 121.016 22.725C121.099 22.9917 121.208 23.2167 121.341 23.4C121.474 23.5833 121.649 23.675 121.866 23.675C122.066 23.675 122.224 23.6333 122.341 23.55C122.458 23.45 122.558 23.3417 122.641 23.225C122.741 23.1083 122.833 23.0083 122.916 22.925C123.016 22.825 123.141 22.775 123.291 22.775C123.458 22.775 123.566 22.825 123.616 22.925C123.683 23.025 123.716 23.1417 123.716 23.275ZM121.841 11.525C121.841 11.3583 121.833 11.1583 121.816 10.925C121.816 10.6917 121.791 10.4667 121.741 10.25C121.708 10.0167 121.658 9.825 121.591 9.675C121.524 9.50833 121.433 9.425 121.316 9.425C121.149 9.425 121.016 9.65833 120.916 10.125C120.816 10.5917 120.733 11.2083 120.666 11.975C120.616 12.725 120.574 13.5833 120.541 14.55C120.524 15.5 120.516 16.4667 120.516 17.45C120.516 17.7333 120.516 18.0333 120.516 18.35C120.516 18.65 120.533 18.9167 120.566 19.15C121.116 17.8333 121.466 16.5583 121.616 15.325C121.766 14.0917 121.841 12.825 121.841 11.525ZM132.621 24.65C132.621 24.8167 132.546 24.9333 132.396 25C132.246 25.0667 132.104 25.1 131.971 25.1L131.471 25.05C131.388 25.05 131.346 25.1 131.346 25.2L131.321 25.5C131.338 25.95 131.346 26.5167 131.346 27.2C131.346 27.8833 131.346 28.5417 131.346 29.175C131.346 29.8417 131.321 30.4917 131.271 31.125C131.238 31.775 131.146 32.35 130.996 32.85C130.846 33.3667 130.629 33.775 130.346 34.075C130.079 34.3917 129.704 34.55 129.221 34.55C128.804 34.55 128.363 34.525 127.896 34.475C127.446 34.4417 127.029 34.3417 126.646 34.175C126.279 34.0083 125.971 33.7583 125.721 33.425C125.488 33.1083 125.371 32.675 125.371 32.125C125.371 31.575 125.429 31.0083 125.546 30.425C125.679 29.8583 125.863 29.3 126.096 28.75C126.329 28.2167 126.604 27.7 126.921 27.2C127.254 26.7167 127.613 26.2833 127.996 25.9C128.196 25.7 128.413 25.4917 128.646 25.275C128.896 25.075 129.113 24.9083 129.296 24.775V24.75C129.329 24.4 129.354 24.05 129.371 23.7C129.388 23.35 129.396 22.9917 129.396 22.625C129.313 22.775 129.213 22.9833 129.096 23.25C128.979 23.5 128.838 23.7417 128.671 23.975C128.521 24.2083 128.346 24.4083 128.146 24.575C127.946 24.7583 127.721 24.85 127.471 24.85C127.338 24.85 127.221 24.825 127.121 24.775C127.021 24.725 126.879 24.7 126.696 24.7C126.229 24.6667 125.838 24.5417 125.521 24.325C125.221 24.1083 124.979 23.8083 124.796 23.425C124.629 23.0417 124.513 22.5917 124.446 22.075C124.379 21.5417 124.346 20.95 124.346 20.3C124.346 19.5167 124.388 18.7083 124.471 17.875C124.571 17.0417 124.738 16.2833 124.971 15.6C125.204 14.9 125.513 14.3333 125.896 13.9C126.296 13.45 126.796 13.225 127.396 13.225C127.463 13.225 127.546 13.25 127.646 13.3C127.763 13.35 127.879 13.4083 127.996 13.475C128.129 13.525 128.254 13.5833 128.371 13.65C128.504 13.7 128.604 13.7333 128.671 13.75C129.004 13.8167 129.313 13.9 129.596 14C129.879 14.1 130.121 14.2333 130.321 14.4C130.521 14.55 130.679 14.7583 130.796 15.025C130.913 15.275 130.971 15.5917 130.971 15.975C130.971 16.2417 130.946 16.4833 130.896 16.7C130.863 16.9167 130.846 17.1917 130.846 17.525C130.846 17.6583 130.896 17.75 130.996 17.8C131.096 17.85 131.204 17.8917 131.321 17.925C131.454 17.9583 131.571 18 131.671 18.05C131.771 18.0833 131.821 18.1667 131.821 18.3C131.821 18.3333 131.779 18.4167 131.696 18.55C131.629 18.6667 131.588 18.7417 131.571 18.775C131.521 18.9083 131.479 19.125 131.446 19.425C131.413 19.7083 131.388 20.025 131.371 20.375C131.354 20.7083 131.338 21.0583 131.321 21.425C131.321 21.775 131.321 22.0917 131.321 22.375C131.321 22.5917 131.321 22.8833 131.321 23.25C131.321 23.6 131.329 23.8917 131.346 24.125H131.446C131.479 24.125 131.513 24.1167 131.546 24.1C131.579 24.1 131.604 24.1 131.621 24.1C131.771 24.1 131.971 24.1417 132.221 24.225C132.488 24.325 132.621 24.4667 132.621 24.65ZM129.421 16.925C129.421 16.7417 129.404 16.5333 129.371 16.3C129.338 16.0667 129.279 15.85 129.196 15.65C129.113 15.4333 128.988 15.2583 128.821 15.125C128.671 14.975 128.479 14.9 128.246 14.9C127.929 14.9 127.629 15.025 127.346 15.275C127.079 15.525 126.838 15.8833 126.621 16.35C126.421 16.8 126.254 17.3583 126.121 18.025C126.004 18.675 125.946 19.4167 125.946 20.25C125.946 20.6 125.954 20.9667 125.971 21.35C126.004 21.7167 126.046 22.05 126.096 22.35C126.163 22.65 126.254 22.9 126.371 23.1C126.504 23.3 126.671 23.4 126.871 23.4C127.221 23.4 127.529 23.25 127.796 22.95C128.063 22.65 128.279 22.2833 128.446 21.85C128.629 21.4 128.763 20.9417 128.846 20.475C128.946 19.9917 129.004 19.575 129.021 19.225C129.038 18.7417 129.063 18.4167 129.096 18.25C129.129 18.0667 129.163 17.95 129.196 17.9C129.296 17.7667 129.354 17.6083 129.371 17.425C129.404 17.2417 129.421 17.075 129.421 16.925ZM129.321 25.625C128.938 25.8917 128.571 26.2667 128.221 26.75C127.888 27.2333 127.596 27.7583 127.346 28.325C127.096 28.8917 126.896 29.4667 126.746 30.05C126.613 30.6333 126.546 31.1583 126.546 31.625C126.546 31.7917 126.563 31.975 126.596 32.175C126.629 32.375 126.679 32.5583 126.746 32.725C126.829 32.9083 126.938 33.0583 127.071 33.175C127.221 33.2917 127.396 33.35 127.596 33.35C127.946 33.35 128.229 33.2 128.446 32.9C128.679 32.6167 128.854 32.275 128.971 31.875C129.104 31.475 129.188 31.0667 129.221 30.65C129.271 30.2333 129.296 29.9 129.296 29.65C129.296 29.6 129.296 29.525 129.296 29.425C129.296 29.325 129.296 29.1333 129.296 28.85C129.313 28.5667 129.321 28.1667 129.321 27.65C129.321 27.15 129.321 26.475 129.321 25.625ZM140.71 20.475C140.71 20.5917 140.668 20.875 140.585 21.325C140.518 21.7583 140.385 22.225 140.185 22.725C140.002 23.2083 139.743 23.6417 139.41 24.025C139.093 24.4083 138.685 24.6 138.185 24.6C137.652 24.6 137.227 24.4083 136.91 24.025C136.593 23.6583 136.352 23.2167 136.185 22.7C136.018 22.1667 135.91 21.6167 135.86 21.05C135.81 20.4667 135.785 19.9833 135.785 19.6C135.785 19.1667 135.81 18.7333 135.86 18.3C135.91 17.85 135.943 17.4083 135.96 16.975C135.96 16.8417 135.893 16.7583 135.76 16.725C135.627 16.6917 135.502 16.675 135.385 16.675C135.185 16.675 135.06 16.7 135.01 16.75C134.96 16.8 134.927 16.8583 134.91 16.925L134.81 17.725C134.743 18.2583 134.668 18.775 134.585 19.275C134.518 19.7583 134.435 20.1917 134.335 20.575C134.252 20.9417 134.143 21.2417 134.01 21.475C133.893 21.6917 133.752 21.8 133.585 21.8H133.56C133.493 21.8 133.427 21.7833 133.36 21.75C133.31 21.7167 133.285 21.6333 133.285 21.5C133.285 21.4333 133.302 21.3333 133.335 21.2C133.468 20.6167 133.552 20.1333 133.585 19.75C133.618 19.3667 133.643 19.025 133.66 18.725V18.55C133.66 18.4667 133.66 18.3667 133.66 18.25C133.677 18.1333 133.685 17.9917 133.685 17.825V17.175C133.685 16.9917 133.685 16.8 133.685 16.6C133.685 16.4 133.668 16.1833 133.635 15.95L133.56 14.475C133.56 14.375 133.602 14.2833 133.685 14.2C133.768 14.1167 133.877 14.0417 134.01 13.975C134.143 13.9083 134.285 13.8583 134.435 13.825C134.585 13.7917 134.718 13.775 134.835 13.775C135.118 13.775 135.26 13.9583 135.26 14.325V14.45L135.235 15V15.15C135.235 15.2667 135.26 15.3417 135.31 15.375C135.36 15.3917 135.46 15.4167 135.61 15.45H135.685C135.818 15.4667 136.035 15.4833 136.335 15.5C136.635 15.5167 136.935 15.55 137.235 15.6C137.535 15.65 137.793 15.7333 138.01 15.85C138.243 15.95 138.36 16.1 138.36 16.3C138.36 16.3667 138.343 16.4667 138.31 16.6C138.277 16.7167 138.235 16.8417 138.185 16.975C138.135 17.0917 138.093 17.2 138.06 17.3C138.027 17.4 138.01 17.4667 138.01 17.5C137.71 18.65 137.56 19.85 137.56 21.1C137.56 21.2 137.568 21.3833 137.585 21.65C137.602 21.9167 137.635 22.1917 137.685 22.475C137.735 22.7583 137.81 23.0083 137.91 23.225C138.01 23.4417 138.135 23.55 138.285 23.55C138.535 23.55 138.76 23.4 138.96 23.1C139.16 22.7833 139.335 22.425 139.485 22.025C139.635 21.6083 139.752 21.1917 139.835 20.775C139.935 20.3583 140.002 20.05 140.035 19.85C140.068 19.6667 140.118 19.5583 140.185 19.525C140.268 19.475 140.343 19.45 140.41 19.45C140.643 19.45 140.76 19.6 140.76 19.9C140.76 19.9333 140.752 20.025 140.735 20.175C140.735 20.3083 140.727 20.4083 140.71 20.475ZM150.508 21.275C150.475 21.5083 150.392 21.7833 150.258 22.1C150.125 22.4167 149.95 22.725 149.733 23.025C149.533 23.3083 149.292 23.55 149.008 23.75C148.742 23.95 148.442 24.05 148.108 24.05C147.608 24.05 147.167 23.8583 146.783 23.475C146.417 23.0917 146.192 22.55 146.108 21.85C146.008 22.1167 145.892 22.425 145.758 22.775C145.625 23.125 145.458 23.45 145.258 23.75C145.058 24.05 144.825 24.3 144.558 24.5C144.308 24.7167 144.008 24.825 143.658 24.825C143.558 24.825 143.483 24.8167 143.433 24.8C143.383 24.7833 143.325 24.7583 143.258 24.725C143.208 24.7083 143.142 24.6917 143.058 24.675C142.992 24.6583 142.892 24.65 142.758 24.65C142.358 24.65 142.017 24.5167 141.733 24.25C141.467 24 141.25 23.675 141.083 23.275C140.917 22.875 140.792 22.4417 140.708 21.975C140.642 21.4917 140.608 21.0417 140.608 20.625C140.608 19.625 140.658 18.675 140.758 17.775C140.875 16.875 141.058 16.0833 141.308 15.4C141.558 14.7 141.883 14.15 142.283 13.75C142.683 13.3333 143.167 13.125 143.733 13.125C144.067 13.125 144.317 13.1583 144.483 13.225C144.667 13.275 144.833 13.3417 144.983 13.425C145.133 13.4917 145.292 13.5667 145.458 13.65C145.642 13.7333 145.892 13.8 146.208 13.85C146.558 14.05 146.8 14.2917 146.933 14.575C147.083 14.8417 147.175 15.1333 147.208 15.45C147.258 15.7667 147.275 16.1 147.258 16.45C147.242 16.7833 147.258 17.1167 147.308 17.45C147.308 17.4667 147.342 17.4917 147.408 17.525C147.492 17.5583 147.583 17.6 147.683 17.65C147.783 17.6833 147.867 17.7417 147.933 17.825C148.017 17.8917 148.058 17.9833 148.058 18.1V18.2C147.892 18.6333 147.792 19.0167 147.758 19.35C147.725 19.6833 147.708 20.0833 147.708 20.55C147.708 20.7833 147.717 21.0417 147.733 21.325C147.767 21.5917 147.808 21.85 147.858 22.1C147.925 22.3333 148.017 22.5333 148.133 22.7C148.25 22.85 148.4 22.925 148.583 22.925C148.783 22.925 148.958 22.825 149.108 22.625C149.275 22.425 149.408 22.2 149.508 21.95C149.625 21.6833 149.717 21.4167 149.783 21.15C149.867 20.8833 149.917 20.6833 149.933 20.55C149.967 20.35 150.05 20.25 150.183 20.25C150.267 20.25 150.342 20.3 150.408 20.4C150.492 20.4833 150.533 20.6417 150.533 20.875C150.533 20.9417 150.533 21.0083 150.533 21.075C150.533 21.125 150.525 21.1917 150.508 21.275ZM145.883 17.225C145.883 17.0417 145.867 16.825 145.833 16.575C145.8 16.325 145.742 16.0917 145.658 15.875C145.575 15.6583 145.45 15.475 145.283 15.325C145.117 15.175 144.892 15.1 144.608 15.1C144.142 15.1 143.758 15.3167 143.458 15.75C143.175 16.1667 142.95 16.6667 142.783 17.25C142.617 17.8167 142.508 18.4083 142.458 19.025C142.408 19.625 142.383 20.1 142.383 20.45C142.383 20.7167 142.392 21.0417 142.408 21.425C142.442 21.7917 142.492 22.1417 142.558 22.475C142.625 22.8083 142.717 23.0917 142.833 23.325C142.967 23.5583 143.133 23.675 143.333 23.675C143.817 23.675 144.183 23.4917 144.433 23.125C144.7 22.7417 144.9 22.275 145.033 21.725C145.167 21.1583 145.258 20.5583 145.308 19.925C145.375 19.275 145.433 18.6833 145.483 18.15C145.517 17.8667 145.592 17.6917 145.708 17.625C145.825 17.5417 145.883 17.4833 145.883 17.45V17.225ZM158.79 17.85C158.557 18.3 158.34 18.775 158.14 19.275C157.94 19.775 157.79 20.1667 157.69 20.45C157.674 20.5333 157.624 20.7083 157.54 20.975C157.474 21.2417 157.39 21.5417 157.29 21.875C157.207 22.1917 157.132 22.5083 157.065 22.825C156.999 23.1417 156.965 23.4 156.965 23.6C156.965 23.6833 156.89 23.7583 156.74 23.825C156.59 23.8917 156.399 23.925 156.165 23.925C155.799 23.925 155.507 23.875 155.29 23.775C155.074 23.675 154.907 23.5167 154.79 23.3C154.69 23.0667 154.624 22.7667 154.59 22.4C154.574 22.0333 154.565 21.5917 154.565 21.075V19.2C154.565 19.0667 154.557 18.9333 154.54 18.8C154.54 18.6667 154.515 18.5833 154.465 18.55C154.382 18.5833 154.274 18.8 154.14 19.2C154.024 19.6 153.907 20.0917 153.79 20.675C153.69 21.2417 153.599 21.8417 153.515 22.475C153.432 23.1083 153.39 23.675 153.39 24.175C153.39 24.3583 153.29 24.4667 153.09 24.5C152.907 24.5333 152.699 24.55 152.465 24.55C152.399 24.55 152.282 24.5333 152.115 24.5C151.965 24.4833 151.807 24.4583 151.64 24.425C151.49 24.3917 151.349 24.3417 151.215 24.275C151.082 24.225 150.999 24.1583 150.965 24.075C150.882 23.8583 150.815 23.5 150.765 23C150.732 22.5 150.715 21.725 150.715 20.675C150.715 20.0583 150.724 19.3417 150.74 18.525C150.774 17.7083 150.807 16.75 150.84 15.65C150.84 15.5 150.832 15.3083 150.815 15.075C150.799 14.825 150.79 14.6833 150.79 14.65C150.79 14.5167 150.84 14.4417 150.94 14.425C151.057 14.3917 151.14 14.375 151.19 14.375C151.307 14.375 151.44 14.3917 151.59 14.425C151.757 14.4417 151.915 14.4667 152.065 14.5C152.232 14.5333 152.382 14.575 152.515 14.625C152.649 14.6583 152.74 14.6917 152.79 14.725V20.75C152.874 20.4167 152.965 20.0333 153.065 19.6C153.182 19.15 153.307 18.7083 153.44 18.275C153.59 17.8417 153.749 17.4417 153.915 17.075C154.082 16.7083 154.257 16.4417 154.44 16.275C154.507 16.225 154.632 16.1917 154.815 16.175C154.999 16.1417 155.149 16.125 155.265 16.125C155.349 16.125 155.449 16.1417 155.565 16.175C155.699 16.1917 155.824 16.225 155.94 16.275C156.057 16.325 156.157 16.3917 156.24 16.475C156.34 16.5417 156.399 16.625 156.415 16.725V20.775V21C156.415 21.1 156.432 21.15 156.465 21.15C156.499 21.15 156.59 20.925 156.74 20.475C156.907 20.025 157.099 19.4917 157.315 18.875C157.532 18.2583 157.765 17.625 158.015 16.975C158.265 16.325 158.49 15.8083 158.69 15.425C158.724 15.3583 158.832 15.325 159.015 15.325C159.215 15.3083 159.39 15.3 159.54 15.3C159.657 15.3 159.815 15.3417 160.015 15.425C160.215 15.4917 160.407 15.5917 160.59 15.725C160.79 15.8583 160.957 16.0083 161.09 16.175C161.24 16.3417 161.315 16.5167 161.315 16.7C161.315 16.7333 161.265 16.8333 161.165 17C161.065 17.15 160.999 17.3083 160.965 17.475C160.849 17.9417 160.765 18.4 160.715 18.85C160.682 19.3 160.665 19.875 160.665 20.575C160.665 20.875 160.674 21.175 160.69 21.475C160.724 21.775 160.765 22.05 160.815 22.3C160.882 22.5333 160.965 22.725 161.065 22.875C161.165 23.025 161.299 23.1 161.465 23.1C161.699 23.1 161.907 23.025 162.09 22.875C162.274 22.7083 162.432 22.4917 162.565 22.225C162.699 21.9583 162.815 21.65 162.915 21.3C163.015 20.9333 163.099 20.5583 163.165 20.175C163.249 19.775 163.399 19.575 163.615 19.575C163.749 19.575 163.832 19.6083 163.865 19.675C163.915 19.7417 163.94 19.8917 163.94 20.125C163.94 20.2583 163.932 20.35 163.915 20.4C163.899 20.6167 163.824 20.9583 163.69 21.425C163.574 21.875 163.399 22.3333 163.165 22.8C162.949 23.25 162.674 23.65 162.34 24C162.007 24.3333 161.624 24.5 161.19 24.5C160.674 24.5 160.249 24.375 159.915 24.125C159.582 23.8917 159.324 23.575 159.14 23.175C158.957 22.7583 158.824 22.2833 158.74 21.75C158.674 21.2167 158.64 20.6583 158.64 20.075V19.9L158.79 17.85Z" fill="#262626"/>
<rect x="54.1373" y="0.566406" width="0.5" height="33" fill="#2A2A2A"/>
</svg>
