<svg width="221" height="57" viewBox="0 0 221 57" fill="none" xmlns="http://www.w3.org/2000/svg">
<rect x="2.5" y="2.5" width="48" height="48" stroke="#262626" stroke-width="5"/>
<rect x="15.9" y="15.9" width="22.26" height="22.26" fill="#262626"/>
<rect x="39.22" y="8.48" width="5.3" height="5.3" fill="#262626"/>
<path d="M125.065 17.165C125.065 18.335 124.81 19.475 124.3 20.585C123.82 21.695 123.175 22.7 122.365 23.6C121.585 24.5 120.685 25.265 119.665 25.895C118.645 26.495 117.61 26.885 116.56 27.065C117.25 27.305 117.94 27.59 118.63 27.92C119.35 28.22 119.98 28.745 120.52 29.495C120.82 29.915 121.045 30.47 121.195 31.16C121.375 31.85 121.495 32.585 121.555 33.365C121.645 34.145 121.705 34.925 121.735 35.705C121.795 36.485 121.87 37.19 121.96 37.82C122.05 38.45 122.17 38.96 122.32 39.35C122.5 39.74 122.74 39.935 123.04 39.935C123.37 39.935 123.625 39.86 123.805 39.71C123.985 39.59 124.18 39.365 124.39 39.035C124.42 39.125 124.435 39.2 124.435 39.26C124.465 39.35 124.48 39.455 124.48 39.575C124.48 40.205 124.165 40.745 123.535 41.195C122.935 41.645 122.125 41.87 121.105 41.87C120.115 41.87 119.32 41.63 118.72 41.15C118.15 40.7 117.79 39.905 117.64 38.765C117.37 36.635 117.175 34.895 117.055 33.545C116.935 32.195 116.77 31.145 116.56 30.395C116.35 29.645 116.05 29.135 115.66 28.865C115.27 28.595 114.685 28.46 113.905 28.46C113.755 28.46 113.515 28.475 113.185 28.505C112.885 28.535 112.735 28.61 112.735 28.73C112.675 29 112.645 29.63 112.645 30.62C112.645 31.61 112.645 32.735 112.645 33.995V39.035C112.645 39.155 112.66 39.35 112.69 39.62C112.75 39.89 112.96 40.085 113.32 40.205C113.14 40.385 112.855 40.52 112.465 40.61C112.075 40.73 111.67 40.805 111.25 40.835C110.86 40.895 110.485 40.925 110.125 40.925C109.765 40.925 109.51 40.925 109.36 40.925C109.06 40.925 108.82 40.835 108.64 40.655C108.46 40.505 108.31 40.235 108.19 39.845C108.1 39.485 108.04 38.99 108.01 38.36C107.98 37.76 107.965 36.995 107.965 36.065C107.965 35.165 107.965 34.085 107.965 32.825C107.965 31.565 107.98 30.215 108.01 28.775C108.04 27.305 108.085 25.805 108.145 24.275C108.235 22.745 108.34 21.275 108.46 19.865C108.58 18.425 108.745 17.105 108.955 15.905C109.165 14.675 109.42 13.655 109.72 12.845C109.66 12.785 109.585 12.695 109.495 12.575C109.405 12.425 109.33 12.35 109.27 12.35H108.955C108.265 12.35 107.395 12.515 106.345 12.845C105.325 13.145 104.335 13.535 103.375 14.015C102.415 14.495 101.59 15.035 100.9 15.635C100.21 16.205 99.865 16.76 99.865 17.3C99.865 17.42 99.895 17.645 99.955 17.975C99.985 18.305 100.015 18.65 100.045 19.01C100.105 19.34 100.15 19.67 100.18 20C100.24 20.3 100.27 20.51 100.27 20.63C100.27 20.93 100.24 21.23 100.18 21.53C100.12 21.8 99.94 21.935 99.64 21.935C99.13 21.935 98.68 21.8 98.29 21.53C97.9 21.26 97.57 20.93 97.3 20.54C97 20.12 96.775 19.7 96.625 19.28C96.475 18.83 96.4 18.455 96.4 18.155C96.4 17.615 96.58 17.105 96.94 16.625C97.27 16.115 97.69 15.65 98.2 15.23C98.68 14.78 99.205 14.39 99.775 14.06C100.315 13.7 100.795 13.4 101.215 13.16C104.155 11.57 106.84 10.475 109.27 9.875C111.73 9.275 114.025 8.975 116.155 8.975C117.505 8.975 118.72 9.32 119.8 10.01C120.91 10.67 121.855 11.45 122.635 12.35C123.415 13.25 124.015 14.165 124.435 15.095C124.855 15.995 125.065 16.685 125.065 17.165ZM121.51 16.4C121.51 14.87 120.91 13.715 119.71 12.935C118.54 12.155 117.01 11.765 115.12 11.765C115 11.765 114.85 11.765 114.67 11.765C114.52 11.765 114.145 11.78 113.545 11.81C113.275 11.84 113.05 12.035 112.87 12.395C112.72 12.725 112.645 13.28 112.645 14.06V24.5C112.645 24.92 112.705 25.19 112.825 25.31C112.975 25.43 113.35 25.49 113.95 25.49C114.94 25.49 115.885 25.175 116.785 24.545C117.715 23.885 118.525 23.09 119.215 22.16C119.905 21.23 120.46 20.24 120.88 19.19C121.3 18.14 121.51 17.21 121.51 16.4ZM140.124 31.07C140.124 31.82 139.989 32.66 139.719 33.59C139.449 34.52 139.029 35.39 138.459 36.2C137.889 36.98 137.154 37.64 136.254 38.18C135.384 38.72 134.334 38.99 133.104 38.99C131.934 38.99 130.944 38.78 130.134 38.36C129.324 37.94 128.649 37.37 128.109 36.65C127.599 35.93 127.224 35.09 126.984 34.13C126.774 33.14 126.669 32.105 126.669 31.025C126.669 29.975 126.789 28.82 127.029 27.56C127.269 26.3 127.644 25.13 128.154 24.05C128.664 22.94 129.309 22.025 130.089 21.305C130.869 20.555 131.814 20.18 132.924 20.18C133.464 20.18 133.974 20.3 134.454 20.54C134.934 20.75 135.354 21.035 135.714 21.395C136.074 21.755 136.359 22.175 136.569 22.655C136.779 23.135 136.899 23.63 136.929 24.14L136.974 24.77C136.974 25.49 136.854 26.285 136.614 27.155C136.374 27.995 136.029 28.79 135.579 29.54C135.129 30.26 134.574 30.875 133.914 31.385C133.254 31.865 132.504 32.105 131.664 32.105C131.514 32.105 131.319 32.09 131.079 32.06C130.869 32.03 130.659 31.985 130.449 31.925V33.23C130.449 33.44 130.509 33.74 130.629 34.13C130.779 34.52 130.989 34.91 131.259 35.3C131.529 35.66 131.874 35.99 132.294 36.29C132.744 36.56 133.284 36.695 133.914 36.695C134.784 36.695 135.489 36.53 136.029 36.2C136.599 35.84 137.064 35.39 137.424 34.85C137.784 34.31 138.054 33.71 138.234 33.05C138.444 32.36 138.609 31.7 138.729 31.07C138.819 30.65 138.909 30.365 138.999 30.215C139.089 30.065 139.239 29.99 139.449 29.99C139.899 29.99 140.124 30.245 140.124 30.755V31.07ZM134.814 24.095C134.814 23.855 134.739 23.6 134.589 23.33C134.469 23.06 134.229 22.925 133.869 22.925C133.329 22.925 132.864 23.21 132.474 23.78C132.084 24.35 131.754 25.01 131.484 25.76C131.244 26.48 131.064 27.185 130.944 27.875C130.824 28.535 130.764 28.97 130.764 29.18V29.315C130.764 29.585 130.779 29.81 130.809 29.99C130.869 30.14 131.034 30.215 131.304 30.215H131.529C132.129 30.215 132.639 29.99 133.059 29.54C133.479 29.09 133.809 28.55 134.049 27.92C134.319 27.29 134.514 26.645 134.634 25.985C134.754 25.325 134.814 24.785 134.814 24.365V24.095ZM154.912 39.17C154.912 39.47 154.777 39.68 154.507 39.8C154.237 39.92 153.982 39.98 153.742 39.98L152.842 39.89C152.692 39.89 152.617 39.98 152.617 40.16L152.572 40.7C152.602 41.51 152.617 42.53 152.617 43.76C152.617 44.99 152.617 46.175 152.617 47.315C152.617 48.515 152.572 49.685 152.482 50.825C152.422 51.995 152.257 53.03 151.987 53.93C151.717 54.86 151.327 55.595 150.817 56.135C150.337 56.705 149.662 56.99 148.792 56.99C148.042 56.99 147.247 56.945 146.407 56.855C145.597 56.795 144.847 56.615 144.157 56.315C143.497 56.015 142.942 55.565 142.492 54.965C142.072 54.395 141.862 53.615 141.862 52.625C141.862 51.635 141.967 50.615 142.177 49.565C142.417 48.545 142.747 47.54 143.167 46.55C143.587 45.59 144.082 44.66 144.652 43.76C145.252 42.89 145.897 42.11 146.587 41.42C146.947 41.06 147.337 40.685 147.757 40.295C148.207 39.935 148.597 39.635 148.927 39.395V39.35C148.987 38.72 149.032 38.09 149.062 37.46C149.092 36.83 149.107 36.185 149.107 35.525C148.957 35.795 148.777 36.17 148.567 36.65C148.357 37.1 148.102 37.535 147.802 37.955C147.532 38.375 147.217 38.735 146.857 39.035C146.497 39.365 146.092 39.53 145.642 39.53C145.402 39.53 145.192 39.485 145.012 39.395C144.832 39.305 144.577 39.26 144.247 39.26C143.407 39.2 142.702 38.975 142.132 38.585C141.592 38.195 141.157 37.655 140.827 36.965C140.527 36.275 140.317 35.465 140.197 34.535C140.077 33.575 140.017 32.51 140.017 31.34C140.017 29.93 140.092 28.475 140.242 26.975C140.422 25.475 140.722 24.11 141.142 22.88C141.562 21.62 142.117 20.6 142.807 19.82C143.527 19.01 144.427 18.605 145.507 18.605C145.627 18.605 145.777 18.65 145.957 18.74C146.167 18.83 146.377 18.935 146.587 19.055C146.827 19.145 147.052 19.25 147.262 19.37C147.502 19.46 147.682 19.52 147.802 19.55C148.402 19.67 148.957 19.82 149.467 20C149.977 20.18 150.412 20.42 150.772 20.72C151.132 20.99 151.417 21.365 151.627 21.845C151.837 22.295 151.942 22.865 151.942 23.555C151.942 24.035 151.897 24.47 151.807 24.86C151.747 25.25 151.717 25.745 151.717 26.345C151.717 26.585 151.807 26.75 151.987 26.84C152.167 26.93 152.362 27.005 152.572 27.065C152.812 27.125 153.022 27.2 153.202 27.29C153.382 27.35 153.472 27.5 153.472 27.74C153.472 27.8 153.397 27.95 153.247 28.19C153.127 28.4 153.052 28.535 153.022 28.595C152.932 28.835 152.857 29.225 152.797 29.765C152.737 30.275 152.692 30.845 152.662 31.475C152.632 32.075 152.602 32.705 152.572 33.365C152.572 33.995 152.572 34.565 152.572 35.075C152.572 35.465 152.572 35.99 152.572 36.65C152.572 37.28 152.587 37.805 152.617 38.225H152.797C152.857 38.225 152.917 38.21 152.977 38.18C153.037 38.18 153.082 38.18 153.112 38.18C153.382 38.18 153.742 38.255 154.192 38.405C154.672 38.585 154.912 38.84 154.912 39.17ZM149.152 25.265C149.152 24.935 149.122 24.56 149.062 24.14C149.002 23.72 148.897 23.33 148.747 22.97C148.597 22.58 148.372 22.265 148.072 22.025C147.802 21.755 147.457 21.62 147.037 21.62C146.467 21.62 145.927 21.845 145.417 22.295C144.937 22.745 144.502 23.39 144.112 24.23C143.752 25.04 143.452 26.045 143.212 27.245C143.002 28.415 142.897 29.75 142.897 31.25C142.897 31.88 142.912 32.54 142.942 33.23C143.002 33.89 143.077 34.49 143.167 35.03C143.287 35.57 143.452 36.02 143.662 36.38C143.902 36.74 144.202 36.92 144.562 36.92C145.192 36.92 145.747 36.65 146.227 36.11C146.707 35.57 147.097 34.91 147.397 34.13C147.727 33.32 147.967 32.495 148.117 31.655C148.297 30.785 148.402 30.035 148.432 29.405C148.462 28.535 148.507 27.95 148.567 27.65C148.627 27.32 148.687 27.11 148.747 27.02C148.927 26.78 149.032 26.495 149.062 26.165C149.122 25.835 149.152 25.535 149.152 25.265ZM148.972 40.925C148.282 41.405 147.622 42.08 146.992 42.95C146.392 43.82 145.867 44.765 145.417 45.785C144.967 46.805 144.607 47.84 144.337 48.89C144.097 49.94 143.977 50.885 143.977 51.725C143.977 52.025 144.007 52.355 144.067 52.715C144.127 53.075 144.217 53.405 144.337 53.705C144.487 54.035 144.682 54.305 144.922 54.515C145.192 54.725 145.507 54.83 145.867 54.83C146.497 54.83 147.007 54.56 147.397 54.02C147.817 53.51 148.132 52.895 148.342 52.175C148.582 51.455 148.732 50.72 148.792 49.97C148.882 49.22 148.927 48.62 148.927 48.17C148.927 48.08 148.927 47.945 148.927 47.765C148.927 47.585 148.927 47.24 148.927 46.73C148.957 46.22 148.972 45.5 148.972 44.57C148.972 43.67 148.972 42.455 148.972 40.925ZM162.812 17.165C162.812 17.375 162.707 17.555 162.497 17.705C162.287 17.825 162.047 17.915 161.777 17.975C161.537 18.035 161.297 18.08 161.057 18.11C160.817 18.14 160.667 18.155 160.607 18.155C159.977 18.155 159.347 17.975 158.717 17.615C158.117 17.255 157.562 16.685 157.052 15.905C156.992 15.815 156.902 15.695 156.782 15.545C156.662 15.395 156.602 15.29 156.602 15.23C156.602 15.08 156.707 14.945 156.917 14.825C157.157 14.705 157.412 14.585 157.682 14.465C157.982 14.345 158.252 14.255 158.492 14.195C158.762 14.135 158.942 14.105 159.032 14.105C159.632 14.105 160.217 14.255 160.787 14.555C161.387 14.855 161.867 15.41 162.227 16.22C162.287 16.31 162.392 16.475 162.542 16.715C162.722 16.925 162.812 17.075 162.812 17.165ZM167.402 30.8C167.312 31.52 167.147 32.27 166.907 33.05C166.667 33.83 166.322 34.565 165.872 35.255C165.452 35.915 164.912 36.47 164.252 36.92C163.592 37.34 162.782 37.55 161.822 37.55C161.072 37.55 160.307 37.295 159.527 36.785C158.747 36.245 158.207 35.54 157.907 34.67C157.637 33.8 157.502 32.96 157.502 32.15C157.502 31.91 157.517 31.55 157.547 31.07C157.577 30.59 157.592 30.005 157.592 29.315V24.365C157.592 24.125 157.577 23.87 157.547 23.6C157.547 23.33 157.517 23.075 157.457 22.835C157.427 22.715 157.367 22.58 157.277 22.43C157.217 22.28 157.187 22.175 157.187 22.115C157.187 21.995 157.262 21.905 157.412 21.845C157.562 21.755 157.727 21.695 157.907 21.665C158.087 21.635 158.252 21.62 158.402 21.62C158.582 21.62 158.672 21.62 158.672 21.62C158.762 21.62 158.972 21.635 159.302 21.665C159.632 21.665 159.977 21.71 160.337 21.8C160.697 21.89 161.012 22.04 161.282 22.25C161.582 22.43 161.732 22.7 161.732 23.06C161.762 23.15 161.702 23.315 161.552 23.555C161.432 23.795 161.312 24.215 161.192 24.815C161.162 25.055 161.132 25.28 161.102 25.49C161.072 25.67 161.042 25.88 161.012 26.12C160.982 26.36 160.952 26.66 160.922 27.02C160.892 27.35 160.862 27.785 160.832 28.325V31.025C160.832 31.505 160.847 32 160.877 32.51C160.907 32.99 160.967 33.44 161.057 33.86C161.177 34.25 161.357 34.58 161.597 34.85C161.837 35.09 162.152 35.21 162.542 35.21C163.112 35.21 163.562 35.045 163.892 34.715C164.222 34.385 164.477 34.1 164.657 33.86C164.987 33.41 165.242 32.855 165.422 32.195C165.602 31.505 165.767 30.8 165.917 30.08L166.007 29.63C166.097 29.18 166.367 28.955 166.817 28.955C167.267 28.955 167.492 29.27 167.492 29.9V30.125L167.402 30.8ZM177.937 35.21C177.937 35.93 177.697 36.485 177.217 36.875C176.737 37.265 176.182 37.55 175.552 37.73C174.952 37.91 174.337 38.015 173.707 38.045C173.107 38.105 172.672 38.135 172.402 38.135C171.982 38.135 171.457 38.09 170.827 38C170.227 37.91 169.627 37.775 169.027 37.595C168.457 37.385 167.962 37.1 167.542 36.74C167.152 36.38 166.957 35.93 166.957 35.39C166.957 35.06 167.077 34.835 167.317 34.715C167.587 34.565 167.842 34.49 168.082 34.49C168.412 34.49 168.727 34.61 169.027 34.85C169.357 35.09 169.687 35.345 170.017 35.615C170.377 35.885 170.767 36.14 171.187 36.38C171.607 36.62 172.087 36.74 172.627 36.74C172.867 36.74 173.182 36.665 173.572 36.515C173.992 36.335 174.202 36.035 174.202 35.615C174.202 35.195 174.022 34.79 173.662 34.4C173.332 34.01 172.897 33.605 172.357 33.185C171.847 32.765 171.292 32.33 170.692 31.88C170.092 31.43 169.522 30.95 168.982 30.44C168.472 29.9 168.037 29.315 167.677 28.685C167.347 28.055 167.182 27.365 167.182 26.615C167.182 25.565 167.512 24.68 168.172 23.96C168.862 23.24 169.657 22.67 170.557 22.25C171.487 21.83 172.432 21.53 173.392 21.35C174.352 21.17 175.102 21.08 175.642 21.08C176.152 21.08 176.662 21.185 177.172 21.395C177.682 21.605 177.937 22.01 177.937 22.61C177.937 22.79 177.892 23.06 177.802 23.42C177.742 23.75 177.622 24.08 177.442 24.41C177.292 24.74 177.082 25.04 176.812 25.31C176.542 25.55 176.197 25.67 175.777 25.67C175.657 25.67 175.537 25.625 175.417 25.535C175.297 25.415 175.162 25.295 175.012 25.175C174.862 25.025 174.697 24.905 174.517 24.815C174.367 24.695 174.187 24.635 173.977 24.635C172.927 24.635 172.192 24.95 171.772 25.58C171.352 26.18 171.142 26.825 171.142 27.515C171.142 28.115 171.487 28.745 172.177 29.405C172.897 30.065 173.677 30.725 174.517 31.385C175.387 32.045 176.167 32.705 176.857 33.365C177.577 33.995 177.937 34.61 177.937 35.21ZM180.031 29.855C180.061 28.325 180.106 26.765 180.166 25.175C180.226 23.585 180.286 22.115 180.346 20.765C180.346 20.525 180.106 20.36 179.626 20.27C179.146 20.18 178.606 20.09 178.006 20C177.406 19.91 176.866 19.775 176.386 19.595C175.906 19.385 175.666 19.055 175.666 18.605C175.666 18.215 176.056 17.99 176.836 17.93C177.616 17.87 178.771 17.84 180.301 17.84C180.421 17.84 180.496 17.66 180.526 17.3C180.586 16.94 180.616 16.49 180.616 15.95C180.646 15.38 180.661 14.78 180.661 14.15C180.691 13.52 180.721 12.935 180.751 12.395C180.781 11.825 180.826 11.36 180.886 11C180.976 10.64 181.081 10.46 181.201 10.46C181.351 10.46 181.621 10.49 182.011 10.55C182.401 10.61 182.806 10.7 183.226 10.82C183.646 10.91 184.006 11.03 184.306 11.18C184.636 11.33 184.801 11.495 184.801 11.675L184.306 17.525C184.306 17.705 184.456 17.84 184.756 17.93C185.086 17.99 185.491 18.035 185.971 18.065C186.481 18.065 187.006 18.065 187.546 18.065C188.116 18.065 188.641 18.11 189.121 18.2C189.631 18.29 190.036 18.44 190.336 18.65C190.666 18.83 190.831 19.115 190.831 19.505C190.831 19.565 190.801 19.67 190.741 19.82C190.681 19.94 190.606 20 190.516 20C190.456 20 190.366 19.955 190.246 19.865C190.156 19.775 189.886 19.73 189.436 19.73C189.316 19.73 188.986 19.745 188.446 19.775C187.906 19.805 187.336 19.85 186.736 19.91C186.136 19.97 185.581 20.045 185.071 20.135C184.591 20.195 184.321 20.285 184.261 20.405C184.231 20.465 184.186 20.825 184.126 21.485C184.096 22.115 184.051 22.955 183.991 24.005C183.961 25.055 183.931 26.27 183.901 27.65C183.871 29 183.856 30.425 183.856 31.925C183.856 32.495 183.886 33.05 183.946 33.59C184.006 34.13 184.096 34.625 184.216 35.075C184.336 35.495 184.486 35.84 184.666 36.11C184.876 36.38 185.116 36.515 185.386 36.515C185.776 36.515 186.136 36.35 186.466 36.02C186.796 35.69 187.096 35.24 187.366 34.67C187.636 34.1 187.876 33.455 188.086 32.735C188.296 32.015 188.476 31.28 188.626 30.53C188.716 30.08 188.821 29.765 188.941 29.585C189.061 29.375 189.241 29.27 189.481 29.27C189.691 29.27 189.871 29.345 190.021 29.495C190.201 29.615 190.291 29.915 190.291 30.395C190.291 30.695 190.276 30.89 190.246 30.98C190.156 31.52 189.976 32.27 189.706 33.23C189.466 34.16 189.121 35.09 188.671 36.02C188.251 36.92 187.726 37.715 187.096 38.405C186.466 39.095 185.731 39.44 184.891 39.44C184.081 39.44 183.376 39.2 182.776 38.72C182.176 38.27 181.666 37.64 181.246 36.83C180.856 35.99 180.556 35.015 180.346 33.905C180.136 32.765 180.031 31.55 180.031 30.26V29.855ZM203.405 31.07C203.405 31.82 203.27 32.66 203 33.59C202.73 34.52 202.31 35.39 201.74 36.2C201.17 36.98 200.435 37.64 199.535 38.18C198.665 38.72 197.615 38.99 196.385 38.99C195.215 38.99 194.225 38.78 193.415 38.36C192.605 37.94 191.93 37.37 191.39 36.65C190.88 35.93 190.505 35.09 190.265 34.13C190.055 33.14 189.95 32.105 189.95 31.025C189.95 29.975 190.07 28.82 190.31 27.56C190.55 26.3 190.925 25.13 191.435 24.05C191.945 22.94 192.59 22.025 193.37 21.305C194.15 20.555 195.095 20.18 196.205 20.18C196.745 20.18 197.255 20.3 197.735 20.54C198.215 20.75 198.635 21.035 198.995 21.395C199.355 21.755 199.64 22.175 199.85 22.655C200.06 23.135 200.18 23.63 200.21 24.14L200.255 24.77C200.255 25.49 200.135 26.285 199.895 27.155C199.655 27.995 199.31 28.79 198.86 29.54C198.41 30.26 197.855 30.875 197.195 31.385C196.535 31.865 195.785 32.105 194.945 32.105C194.795 32.105 194.6 32.09 194.36 32.06C194.15 32.03 193.94 31.985 193.73 31.925V33.23C193.73 33.44 193.79 33.74 193.91 34.13C194.06 34.52 194.27 34.91 194.54 35.3C194.81 35.66 195.155 35.99 195.575 36.29C196.025 36.56 196.565 36.695 197.195 36.695C198.065 36.695 198.77 36.53 199.31 36.2C199.88 35.84 200.345 35.39 200.705 34.85C201.065 34.31 201.335 33.71 201.515 33.05C201.725 32.36 201.89 31.7 202.01 31.07C202.1 30.65 202.19 30.365 202.28 30.215C202.37 30.065 202.52 29.99 202.73 29.99C203.18 29.99 203.405 30.245 203.405 30.755V31.07ZM198.095 24.095C198.095 23.855 198.02 23.6 197.87 23.33C197.75 23.06 197.51 22.925 197.15 22.925C196.61 22.925 196.145 23.21 195.755 23.78C195.365 24.35 195.035 25.01 194.765 25.76C194.525 26.48 194.345 27.185 194.225 27.875C194.105 28.535 194.045 28.97 194.045 29.18V29.315C194.045 29.585 194.06 29.81 194.09 29.99C194.15 30.14 194.315 30.215 194.585 30.215H194.81C195.41 30.215 195.92 29.99 196.34 29.54C196.76 29.09 197.09 28.55 197.33 27.92C197.6 27.29 197.795 26.645 197.915 25.985C198.035 25.325 198.095 24.785 198.095 24.365V24.095ZM215.984 31.655C215.984 31.865 215.909 32.375 215.759 33.185C215.639 33.965 215.399 34.805 215.039 35.705C214.709 36.575 214.244 37.355 213.644 38.045C213.074 38.735 212.339 39.08 211.439 39.08C210.479 39.08 209.714 38.735 209.144 38.045C208.574 37.385 208.139 36.59 207.839 35.66C207.539 34.7 207.344 33.71 207.254 32.69C207.164 31.64 207.119 30.77 207.119 30.08C207.119 29.3 207.164 28.52 207.254 27.74C207.344 26.93 207.404 26.135 207.434 25.355C207.434 25.115 207.314 24.965 207.074 24.905C206.834 24.845 206.609 24.815 206.399 24.815C206.039 24.815 205.814 24.86 205.724 24.95C205.634 25.04 205.574 25.145 205.544 25.265L205.364 26.705C205.244 27.665 205.109 28.595 204.959 29.495C204.839 30.365 204.689 31.145 204.509 31.835C204.359 32.495 204.164 33.035 203.924 33.455C203.714 33.845 203.459 34.04 203.159 34.04H203.114C202.994 34.04 202.874 34.01 202.754 33.95C202.664 33.89 202.619 33.74 202.619 33.5C202.619 33.38 202.649 33.2 202.709 32.96C202.949 31.91 203.099 31.04 203.159 30.35C203.219 29.66 203.264 29.045 203.294 28.505V28.19C203.294 28.04 203.294 27.86 203.294 27.65C203.324 27.44 203.339 27.185 203.339 26.885V25.715C203.339 25.385 203.339 25.04 203.339 24.68C203.339 24.32 203.309 23.93 203.249 23.51L203.114 20.855C203.114 20.675 203.189 20.51 203.339 20.36C203.489 20.21 203.684 20.075 203.924 19.955C204.164 19.835 204.419 19.745 204.689 19.685C204.959 19.625 205.199 19.595 205.409 19.595C205.919 19.595 206.174 19.925 206.174 20.585V20.81L206.129 21.8V22.07C206.129 22.28 206.174 22.415 206.264 22.475C206.354 22.505 206.534 22.55 206.804 22.61H206.939C207.179 22.64 207.569 22.67 208.109 22.7C208.649 22.73 209.189 22.79 209.729 22.88C210.269 22.97 210.734 23.12 211.124 23.33C211.544 23.51 211.754 23.78 211.754 24.14C211.754 24.26 211.724 24.44 211.664 24.68C211.604 24.89 211.529 25.115 211.439 25.355C211.349 25.565 211.274 25.76 211.214 25.94C211.154 26.12 211.124 26.24 211.124 26.3C210.584 28.37 210.314 30.53 210.314 32.78C210.314 32.96 210.329 33.29 210.359 33.77C210.389 34.25 210.449 34.745 210.539 35.255C210.629 35.765 210.764 36.215 210.944 36.605C211.124 36.995 211.349 37.19 211.619 37.19C212.069 37.19 212.474 36.92 212.834 36.38C213.194 35.81 213.509 35.165 213.779 34.445C214.049 33.695 214.259 32.945 214.409 32.195C214.589 31.445 214.709 30.89 214.769 30.53C214.829 30.2 214.919 30.005 215.039 29.945C215.189 29.855 215.324 29.81 215.444 29.81C215.864 29.81 216.074 30.08 216.074 30.62C216.074 30.68 216.059 30.845 216.029 31.115C216.029 31.355 216.014 31.535 215.984 31.655Z" fill="#262626"/>
<rect x="79" y="5" width="0.922868" height="45" fill="#2A2A2A"/>
</svg>
