<svg width="1440" height="77" viewBox="0 0 1440 77" fill="none" xmlns="http://www.w3.org/2000/svg">
<g filter="url(#filter0_d_508_285)">
<rect width="1440" height="75" fill="white"/>
</g>
<rect x="253.5" y="23.5" width="26" height="26" stroke="#262626" stroke-width="3"/>
<rect x="260.7" y="30.7" width="12.18" height="12.18" fill="#262626"/>
<rect x="273.46" y="26.64" width="2.9" height="2.9" fill="#262626"/>
<path d="M345.425 33.225C345.425 34.1417 345.267 35.0333 344.95 35.9C344.65 36.75 344.233 37.5083 343.7 38.175C343.167 38.8417 342.542 39.3833 341.825 39.8C341.125 40.2 340.375 40.4 339.575 40.4C339.375 40.4 339.175 40.35 338.975 40.25C338.775 40.1333 338.567 40.0083 338.35 39.875L338.225 39.8C338.192 40.2 338.15 40.6917 338.1 41.275C338.067 41.8417 338.05 42.475 338.05 43.175C338.05 43.2917 338.05 43.3917 338.05 43.475C338.05 43.5583 338.05 43.6333 338.05 43.7C338.067 43.7667 338.075 43.8333 338.075 43.9C338.075 43.9667 338.075 44.0583 338.075 44.175C338.075 44.3583 338.117 44.5417 338.2 44.725C338.3 44.9083 338.35 45.0167 338.35 45.05C338.35 45.2 338.25 45.2833 338.05 45.3C337.85 45.3333 337.725 45.35 337.675 45.35C337.242 45.35 336.9 45.2833 336.65 45.15C336.417 45.0167 336.242 44.7333 336.125 44.3C336.008 43.8667 335.933 43.2417 335.9 42.425C335.883 41.5917 335.875 40.4917 335.875 39.125C335.875 37.975 335.9 36.8667 335.95 35.8C336 34.7333 336.058 33.7667 336.125 32.9C336.208 32.0167 336.283 31.2583 336.35 30.625C336.433 29.975 336.5 29.4917 336.55 29.175C336.35 29.2083 336.083 29.2833 335.75 29.4C335.433 29.5 335.092 29.625 334.725 29.775C334.358 29.925 333.983 30.1 333.6 30.3C333.217 30.5 332.867 30.7083 332.55 30.925C332.25 31.1417 332.008 31.3667 331.825 31.6C331.625 31.8167 331.525 32.0333 331.525 32.25L331.95 33.65C331.95 33.7833 331.925 33.9583 331.875 34.175C331.825 34.375 331.683 34.475 331.45 34.475C331.117 34.475 330.833 34.4167 330.6 34.3C330.35 34.1667 330.15 34.0083 330 33.825C329.833 33.625 329.708 33.4167 329.625 33.2C329.542 32.9833 329.5 32.7833 329.5 32.6C329.5 32.0833 329.683 31.6 330.05 31.15C330.4 30.7 330.867 30.2917 331.45 29.925C332.017 29.5583 332.667 29.225 333.4 28.925C334.133 28.625 334.875 28.375 335.625 28.175C336.375 27.975 337.092 27.825 337.775 27.725C338.475 27.6083 339.075 27.55 339.575 27.55C340.158 27.55 340.733 27.5917 341.3 27.675C341.883 27.7417 342.458 27.9167 343.025 28.2C343.625 28.5 344.083 28.9167 344.4 29.45C344.733 29.9833 344.975 30.5167 345.125 31.05C345.275 31.5833 345.358 32.0583 345.375 32.475C345.408 32.8917 345.425 33.1417 345.425 33.225ZM343.675 32.15C343.675 31.3667 343.492 30.7583 343.125 30.325C342.775 29.875 342.333 29.5417 341.8 29.325C341.283 29.1083 340.733 28.9833 340.15 28.95C339.567 28.9 339.042 28.875 338.575 28.875C338.475 28.875 338.3 28.8917 338.05 28.925C337.817 28.9417 337.508 28.9833 337.125 29.05C337.675 29.1833 338.067 29.3667 338.3 29.6C338.533 29.8333 338.642 30.0417 338.625 30.225L338.35 37.3C338.35 37.8833 338.4 38.3167 338.5 38.6C338.6 38.8833 338.883 39.025 339.35 39.025C339.8 39.025 340.275 38.7833 340.775 38.3C341.292 37.8 341.758 37.2 342.175 36.5C342.608 35.7833 342.967 35.0333 343.25 34.25C343.533 33.45 343.675 32.75 343.675 32.15ZM350.436 32.425C350.436 32.5417 350.377 32.6417 350.261 32.725C350.144 32.7917 350.011 32.8417 349.861 32.875C349.727 32.9083 349.594 32.9333 349.461 32.95C349.327 32.9667 349.244 32.975 349.211 32.975C348.861 32.975 348.511 32.875 348.161 32.675C347.827 32.475 347.519 32.1583 347.236 31.725C347.202 31.675 347.152 31.6083 347.086 31.525C347.019 31.4417 346.986 31.3833 346.986 31.35C346.986 31.2667 347.044 31.1917 347.161 31.125C347.294 31.0583 347.436 30.9917 347.586 30.925C347.752 30.8583 347.902 30.8083 348.036 30.775C348.186 30.7417 348.286 30.725 348.336 30.725C348.669 30.725 348.994 30.8083 349.311 30.975C349.644 31.1417 349.911 31.45 350.111 31.9C350.144 31.95 350.202 32.0417 350.286 32.175C350.386 32.2917 350.436 32.375 350.436 32.425ZM352.986 40C352.936 40.4 352.844 40.8167 352.711 41.25C352.577 41.6833 352.386 42.0917 352.136 42.475C351.902 42.8417 351.602 43.15 351.236 43.4C350.869 43.6333 350.419 43.75 349.886 43.75C349.469 43.75 349.044 43.6083 348.611 43.325C348.177 43.025 347.877 42.6333 347.711 42.15C347.561 41.6667 347.486 41.2 347.486 40.75C347.486 40.6167 347.494 40.4167 347.511 40.15C347.527 39.8833 347.536 39.5583 347.536 39.175V36.425C347.536 36.2917 347.527 36.15 347.511 36C347.511 35.85 347.494 35.7083 347.461 35.575C347.444 35.5083 347.411 35.4333 347.361 35.35C347.327 35.2667 347.311 35.2083 347.311 35.175C347.311 35.1083 347.352 35.0583 347.436 35.025C347.519 34.975 347.611 34.9417 347.711 34.925C347.811 34.9083 347.902 34.9 347.986 34.9C348.086 34.9 348.136 34.9 348.136 34.9C348.186 34.9 348.302 34.9083 348.486 34.925C348.669 34.925 348.861 34.95 349.061 35C349.261 35.05 349.436 35.1333 349.586 35.25C349.752 35.35 349.836 35.5 349.836 35.7C349.852 35.75 349.819 35.8417 349.736 35.975C349.669 36.1083 349.602 36.3417 349.536 36.675C349.519 36.8083 349.502 36.9333 349.486 37.05C349.469 37.15 349.452 37.2667 349.436 37.4C349.419 37.5333 349.402 37.7 349.386 37.9C349.369 38.0833 349.352 38.325 349.336 38.625V40.125C349.336 40.3917 349.344 40.6667 349.361 40.95C349.377 41.2167 349.411 41.4667 349.461 41.7C349.527 41.9167 349.627 42.1 349.761 42.25C349.894 42.3833 350.069 42.45 350.286 42.45C350.602 42.45 350.852 42.3583 351.036 42.175C351.219 41.9917 351.361 41.8333 351.461 41.7C351.644 41.45 351.786 41.1417 351.886 40.775C351.986 40.3917 352.077 40 352.161 39.6L352.211 39.35C352.261 39.1 352.411 38.975 352.661 38.975C352.911 38.975 353.036 39.15 353.036 39.5V39.625L352.986 40ZM358.138 38.45C358.138 38.4833 358.163 38.6083 358.213 38.825C358.28 39.0417 358.363 39.3083 358.463 39.625C358.58 39.925 358.713 40.2583 358.863 40.625C359.013 40.975 359.18 41.3083 359.363 41.625C359.547 41.925 359.738 42.175 359.938 42.375C360.138 42.575 360.347 42.675 360.563 42.675C360.897 42.675 361.172 42.5833 361.388 42.4C361.622 42.2167 361.813 41.9833 361.963 41.7C362.13 41.4 362.255 41.0833 362.338 40.75C362.438 40.4 362.513 40.0667 362.563 39.75C362.597 39.6 362.638 39.475 362.688 39.375C362.738 39.275 362.805 39.225 362.888 39.225C363.005 39.225 363.097 39.2583 363.163 39.325C363.23 39.3917 363.272 39.475 363.288 39.575C363.322 39.675 363.338 39.7833 363.338 39.9C363.355 40.0167 363.363 40.125 363.363 40.225V40.3C363.347 40.4667 363.288 40.7583 363.188 41.175C363.088 41.575 362.913 41.9917 362.663 42.425C362.43 42.8417 362.097 43.2167 361.663 43.55C361.247 43.8667 360.713 44.0333 360.063 44.05H360.013C359.147 44.05 358.447 43.775 357.913 43.225C357.38 42.6583 356.897 41.7417 356.463 40.475C356.413 40.4917 356.263 40.7 356.013 41.1C355.763 41.5 355.497 41.9583 355.213 42.475C354.93 42.9917 354.672 43.5 354.438 44C354.205 44.5167 354.088 44.8917 354.088 45.125V45.175C354.088 45.2417 354.13 45.2917 354.213 45.325C354.197 45.4083 354.13 45.4667 354.013 45.5C353.913 45.55 353.813 45.575 353.713 45.575C353.697 45.575 353.613 45.5667 353.463 45.55C353.33 45.5333 353.188 45.5 353.038 45.45C352.888 45.4 352.747 45.3333 352.613 45.25C352.497 45.1833 352.438 45.0917 352.438 44.975L355.838 38.8C355.838 38.7 355.805 38.4667 355.738 38.1C355.688 37.7333 355.605 37.35 355.488 36.95C355.388 36.55 355.255 36.1917 355.088 35.875C354.922 35.5583 354.73 35.4 354.513 35.4C354.247 35.4 354.022 35.4917 353.838 35.675C353.672 35.8583 353.53 36.075 353.413 36.325C353.297 36.575 353.205 36.825 353.138 37.075C353.088 37.3083 353.047 37.4833 353.013 37.6C352.947 37.75 352.78 37.925 352.513 38.125C352.263 38.3083 352.055 38.4 351.888 38.4C351.705 38.4 351.613 38.3167 351.613 38.15C351.613 37.7667 351.755 37.3083 352.038 36.775C352.322 36.2417 352.672 35.725 353.088 35.225C353.522 34.725 353.972 34.3 354.438 33.95C354.922 33.6 355.355 33.425 355.738 33.425C356.088 33.425 356.372 33.5583 356.588 33.825C356.822 34.075 357.013 34.375 357.163 34.725C357.313 35.075 357.422 35.4333 357.488 35.8C357.572 36.1667 357.638 36.4667 357.688 36.7C357.755 36.6333 357.88 36.5 358.063 36.3C358.263 36.0833 358.488 35.8333 358.738 35.55C359.005 35.25 359.288 34.9417 359.588 34.625C359.888 34.2917 360.172 33.9917 360.438 33.725C360.722 33.4417 360.972 33.2167 361.188 33.05C361.405 32.8667 361.563 32.775 361.663 32.775C361.913 32.775 362.18 32.8667 362.463 33.05C362.763 33.2333 362.913 33.4833 362.913 33.8C362.913 33.9 362.872 33.95 362.788 33.95C362.738 33.95 362.688 33.9333 362.638 33.9C362.605 33.85 362.555 33.825 362.488 33.825C362.388 33.825 362.263 33.8667 362.113 33.95C361.963 34.0333 361.747 34.225 361.463 34.525C361.263 34.7417 360.972 35.0583 360.588 35.475C360.222 35.8917 359.855 36.3167 359.488 36.75C359.122 37.1667 358.805 37.5417 358.538 37.875C358.272 38.2083 358.138 38.4 358.138 38.45ZM370.678 40.15C370.678 40.5667 370.603 41.0333 370.453 41.55C370.303 42.0667 370.069 42.55 369.753 43C369.436 43.4333 369.028 43.8 368.528 44.1C368.044 44.4 367.461 44.55 366.778 44.55C366.128 44.55 365.578 44.4333 365.128 44.2C364.678 43.9667 364.303 43.65 364.003 43.25C363.719 42.85 363.511 42.3833 363.378 41.85C363.261 41.3 363.203 40.725 363.203 40.125C363.203 39.5417 363.269 38.9 363.403 38.2C363.536 37.5 363.744 36.85 364.028 36.25C364.311 35.6333 364.669 35.125 365.103 34.725C365.536 34.3083 366.061 34.1 366.678 34.1C366.978 34.1 367.261 34.1667 367.528 34.3C367.794 34.4167 368.028 34.575 368.228 34.775C368.428 34.975 368.586 35.2083 368.703 35.475C368.819 35.7417 368.886 36.0167 368.903 36.3L368.928 36.65C368.928 37.05 368.861 37.4917 368.728 37.975C368.594 38.4417 368.403 38.8833 368.153 39.3C367.903 39.7 367.594 40.0417 367.228 40.325C366.861 40.5917 366.444 40.725 365.978 40.725C365.894 40.725 365.786 40.7167 365.653 40.7C365.536 40.6833 365.419 40.6583 365.303 40.625V41.35C365.303 41.4667 365.336 41.6333 365.403 41.85C365.486 42.0667 365.603 42.2833 365.753 42.5C365.903 42.7 366.094 42.8833 366.328 43.05C366.578 43.2 366.878 43.275 367.228 43.275C367.711 43.275 368.103 43.1833 368.403 43C368.719 42.8 368.978 42.55 369.178 42.25C369.378 41.95 369.528 41.6167 369.628 41.25C369.744 40.8667 369.836 40.5 369.903 40.15C369.953 39.9167 370.003 39.7583 370.053 39.675C370.103 39.5917 370.186 39.55 370.303 39.55C370.553 39.55 370.678 39.6917 370.678 39.975V40.15ZM367.728 36.275C367.728 36.1417 367.686 36 367.603 35.85C367.536 35.7 367.403 35.625 367.203 35.625C366.903 35.625 366.644 35.7833 366.428 36.1C366.211 36.4167 366.028 36.7833 365.878 37.2C365.744 37.6 365.644 37.9917 365.578 38.375C365.511 38.7417 365.478 38.9833 365.478 39.1V39.175C365.478 39.325 365.486 39.45 365.503 39.55C365.536 39.6333 365.628 39.675 365.778 39.675H365.903C366.236 39.675 366.519 39.55 366.753 39.3C366.986 39.05 367.169 38.75 367.303 38.4C367.453 38.05 367.561 37.6917 367.628 37.325C367.694 36.9583 367.728 36.6583 367.728 36.425V36.275ZM375.716 43.275C375.716 43.475 375.641 43.65 375.491 43.8C375.358 43.95 375.183 44.0833 374.966 44.2C374.766 44.3167 374.549 44.4 374.316 44.45C374.099 44.5167 373.916 44.55 373.766 44.55C373.483 44.55 373.166 44.5167 372.816 44.45C372.483 44.4 372.199 44.2833 371.966 44.1C371.699 43.8833 371.474 43.5417 371.291 43.075C371.124 42.5917 370.991 42.025 370.891 41.375C370.808 40.7083 370.749 39.975 370.716 39.175C370.683 38.3583 370.666 37.5083 370.666 36.625C370.666 36.2583 370.674 35.85 370.691 35.4C370.724 34.95 370.758 34.4833 370.791 34C370.824 33.5 370.866 33.0083 370.916 32.525C370.966 32.025 371.016 31.55 371.066 31.1C371.116 30.7833 371.174 30.4417 371.241 30.075C371.308 29.7083 371.374 29.3583 371.441 29.025C371.524 28.6917 371.616 28.3917 371.716 28.125C371.816 27.8583 371.924 27.6667 372.041 27.55C372.174 27.4167 372.349 27.3333 372.566 27.3C372.799 27.25 373.008 27.225 373.191 27.225C373.574 27.225 373.883 27.325 374.116 27.525C374.349 27.725 374.524 28 374.641 28.35C374.774 28.6833 374.858 29.075 374.891 29.525C374.941 29.9583 374.966 30.425 374.966 30.925C374.966 31.6917 374.941 32.525 374.891 33.425C374.841 34.3083 374.733 35.2 374.566 36.1C374.416 37 374.191 37.875 373.891 38.725C373.608 39.575 373.224 40.35 372.741 41.05C372.758 41.2833 372.783 41.5583 372.816 41.875C372.866 42.175 372.933 42.4583 373.016 42.725C373.099 42.9917 373.208 43.2167 373.341 43.4C373.474 43.5833 373.649 43.675 373.866 43.675C374.066 43.675 374.224 43.6333 374.341 43.55C374.458 43.45 374.558 43.3417 374.641 43.225C374.741 43.1083 374.833 43.0083 374.916 42.925C375.016 42.825 375.141 42.775 375.291 42.775C375.458 42.775 375.566 42.825 375.616 42.925C375.683 43.025 375.716 43.1417 375.716 43.275ZM373.841 31.525C373.841 31.3583 373.833 31.1583 373.816 30.925C373.816 30.6917 373.791 30.4667 373.741 30.25C373.708 30.0167 373.658 29.825 373.591 29.675C373.524 29.5083 373.433 29.425 373.316 29.425C373.149 29.425 373.016 29.6583 372.916 30.125C372.816 30.5917 372.733 31.2083 372.666 31.975C372.616 32.725 372.574 33.5833 372.541 34.55C372.524 35.5 372.516 36.4667 372.516 37.45C372.516 37.7333 372.516 38.0333 372.516 38.35C372.516 38.65 372.533 38.9167 372.566 39.15C373.116 37.8333 373.466 36.5583 373.616 35.325C373.766 34.0917 373.841 32.825 373.841 31.525ZM384.621 44.65C384.621 44.8167 384.546 44.9333 384.396 45C384.246 45.0667 384.104 45.1 383.971 45.1L383.471 45.05C383.388 45.05 383.346 45.1 383.346 45.2L383.321 45.5C383.338 45.95 383.346 46.5167 383.346 47.2C383.346 47.8833 383.346 48.5417 383.346 49.175C383.346 49.8417 383.321 50.4917 383.271 51.125C383.238 51.775 383.146 52.35 382.996 52.85C382.846 53.3667 382.629 53.775 382.346 54.075C382.079 54.3917 381.704 54.55 381.221 54.55C380.804 54.55 380.363 54.525 379.896 54.475C379.446 54.4417 379.029 54.3417 378.646 54.175C378.279 54.0083 377.971 53.7583 377.721 53.425C377.488 53.1083 377.371 52.675 377.371 52.125C377.371 51.575 377.429 51.0083 377.546 50.425C377.679 49.8583 377.863 49.3 378.096 48.75C378.329 48.2167 378.604 47.7 378.921 47.2C379.254 46.7167 379.613 46.2833 379.996 45.9C380.196 45.7 380.413 45.4917 380.646 45.275C380.896 45.075 381.113 44.9083 381.296 44.775V44.75C381.329 44.4 381.354 44.05 381.371 43.7C381.388 43.35 381.396 42.9917 381.396 42.625C381.313 42.775 381.213 42.9833 381.096 43.25C380.979 43.5 380.838 43.7417 380.671 43.975C380.521 44.2083 380.346 44.4083 380.146 44.575C379.946 44.7583 379.721 44.85 379.471 44.85C379.338 44.85 379.221 44.825 379.121 44.775C379.021 44.725 378.879 44.7 378.696 44.7C378.229 44.6667 377.838 44.5417 377.521 44.325C377.221 44.1083 376.979 43.8083 376.796 43.425C376.629 43.0417 376.513 42.5917 376.446 42.075C376.379 41.5417 376.346 40.95 376.346 40.3C376.346 39.5167 376.388 38.7083 376.471 37.875C376.571 37.0417 376.738 36.2833 376.971 35.6C377.204 34.9 377.513 34.3333 377.896 33.9C378.296 33.45 378.796 33.225 379.396 33.225C379.463 33.225 379.546 33.25 379.646 33.3C379.763 33.35 379.879 33.4083 379.996 33.475C380.129 33.525 380.254 33.5833 380.371 33.65C380.504 33.7 380.604 33.7333 380.671 33.75C381.004 33.8167 381.313 33.9 381.596 34C381.879 34.1 382.121 34.2333 382.321 34.4C382.521 34.55 382.679 34.7583 382.796 35.025C382.913 35.275 382.971 35.5917 382.971 35.975C382.971 36.2417 382.946 36.4833 382.896 36.7C382.863 36.9167 382.846 37.1917 382.846 37.525C382.846 37.6583 382.896 37.75 382.996 37.8C383.096 37.85 383.204 37.8917 383.321 37.925C383.454 37.9583 383.571 38 383.671 38.05C383.771 38.0833 383.821 38.1667 383.821 38.3C383.821 38.3333 383.779 38.4167 383.696 38.55C383.629 38.6667 383.588 38.7417 383.571 38.775C383.521 38.9083 383.479 39.125 383.446 39.425C383.413 39.7083 383.388 40.025 383.371 40.375C383.354 40.7083 383.338 41.0583 383.321 41.425C383.321 41.775 383.321 42.0917 383.321 42.375C383.321 42.5917 383.321 42.8833 383.321 43.25C383.321 43.6 383.329 43.8917 383.346 44.125H383.446C383.479 44.125 383.513 44.1167 383.546 44.1C383.579 44.1 383.604 44.1 383.621 44.1C383.771 44.1 383.971 44.1417 384.221 44.225C384.488 44.325 384.621 44.4667 384.621 44.65ZM381.421 36.925C381.421 36.7417 381.404 36.5333 381.371 36.3C381.338 36.0667 381.279 35.85 381.196 35.65C381.113 35.4333 380.988 35.2583 380.821 35.125C380.671 34.975 380.479 34.9 380.246 34.9C379.929 34.9 379.629 35.025 379.346 35.275C379.079 35.525 378.838 35.8833 378.621 36.35C378.421 36.8 378.254 37.3583 378.121 38.025C378.004 38.675 377.946 39.4167 377.946 40.25C377.946 40.6 377.954 40.9667 377.971 41.35C378.004 41.7167 378.046 42.05 378.096 42.35C378.163 42.65 378.254 42.9 378.371 43.1C378.504 43.3 378.671 43.4 378.871 43.4C379.221 43.4 379.529 43.25 379.796 42.95C380.063 42.65 380.279 42.2833 380.446 41.85C380.629 41.4 380.763 40.9417 380.846 40.475C380.946 39.9917 381.004 39.575 381.021 39.225C381.038 38.7417 381.063 38.4167 381.096 38.25C381.129 38.0667 381.163 37.95 381.196 37.9C381.296 37.7667 381.354 37.6083 381.371 37.425C381.404 37.2417 381.421 37.075 381.421 36.925ZM381.321 45.625C380.938 45.8917 380.571 46.2667 380.221 46.75C379.888 47.2333 379.596 47.7583 379.346 48.325C379.096 48.8917 378.896 49.4667 378.746 50.05C378.613 50.6333 378.546 51.1583 378.546 51.625C378.546 51.7917 378.563 51.975 378.596 52.175C378.629 52.375 378.679 52.5583 378.746 52.725C378.829 52.9083 378.938 53.0583 379.071 53.175C379.221 53.2917 379.396 53.35 379.596 53.35C379.946 53.35 380.229 53.2 380.446 52.9C380.679 52.6167 380.854 52.275 380.971 51.875C381.104 51.475 381.188 51.0667 381.221 50.65C381.271 50.2333 381.296 49.9 381.296 49.65C381.296 49.6 381.296 49.525 381.296 49.425C381.296 49.325 381.296 49.1333 381.296 48.85C381.313 48.5667 381.321 48.1667 381.321 47.65C381.321 47.15 381.321 46.475 381.321 45.625ZM392.71 40.475C392.71 40.5917 392.668 40.875 392.585 41.325C392.518 41.7583 392.385 42.225 392.185 42.725C392.002 43.2083 391.743 43.6417 391.41 44.025C391.093 44.4083 390.685 44.6 390.185 44.6C389.652 44.6 389.227 44.4083 388.91 44.025C388.593 43.6583 388.352 43.2167 388.185 42.7C388.018 42.1667 387.91 41.6167 387.86 41.05C387.81 40.4667 387.785 39.9833 387.785 39.6C387.785 39.1667 387.81 38.7333 387.86 38.3C387.91 37.85 387.943 37.4083 387.96 36.975C387.96 36.8417 387.893 36.7583 387.76 36.725C387.627 36.6917 387.502 36.675 387.385 36.675C387.185 36.675 387.06 36.7 387.01 36.75C386.96 36.8 386.927 36.8583 386.91 36.925L386.81 37.725C386.743 38.2583 386.668 38.775 386.585 39.275C386.518 39.7583 386.435 40.1917 386.335 40.575C386.252 40.9417 386.143 41.2417 386.01 41.475C385.893 41.6917 385.752 41.8 385.585 41.8H385.56C385.493 41.8 385.427 41.7833 385.36 41.75C385.31 41.7167 385.285 41.6333 385.285 41.5C385.285 41.4333 385.302 41.3333 385.335 41.2C385.468 40.6167 385.552 40.1333 385.585 39.75C385.618 39.3667 385.643 39.025 385.66 38.725V38.55C385.66 38.4667 385.66 38.3667 385.66 38.25C385.677 38.1333 385.685 37.9917 385.685 37.825V37.175C385.685 36.9917 385.685 36.8 385.685 36.6C385.685 36.4 385.668 36.1833 385.635 35.95L385.56 34.475C385.56 34.375 385.602 34.2833 385.685 34.2C385.768 34.1167 385.877 34.0417 386.01 33.975C386.143 33.9083 386.285 33.8583 386.435 33.825C386.585 33.7917 386.718 33.775 386.835 33.775C387.118 33.775 387.26 33.9583 387.26 34.325V34.45L387.235 35V35.15C387.235 35.2667 387.26 35.3417 387.31 35.375C387.36 35.3917 387.46 35.4167 387.61 35.45H387.685C387.818 35.4667 388.035 35.4833 388.335 35.5C388.635 35.5167 388.935 35.55 389.235 35.6C389.535 35.65 389.793 35.7333 390.01 35.85C390.243 35.95 390.36 36.1 390.36 36.3C390.36 36.3667 390.343 36.4667 390.31 36.6C390.277 36.7167 390.235 36.8417 390.185 36.975C390.135 37.0917 390.093 37.2 390.06 37.3C390.027 37.4 390.01 37.4667 390.01 37.5C389.71 38.65 389.56 39.85 389.56 41.1C389.56 41.2 389.568 41.3833 389.585 41.65C389.602 41.9167 389.635 42.1917 389.685 42.475C389.735 42.7583 389.81 43.0083 389.91 43.225C390.01 43.4417 390.135 43.55 390.285 43.55C390.535 43.55 390.76 43.4 390.96 43.1C391.16 42.7833 391.335 42.425 391.485 42.025C391.635 41.6083 391.752 41.1917 391.835 40.775C391.935 40.3583 392.002 40.05 392.035 39.85C392.068 39.6667 392.118 39.5583 392.185 39.525C392.268 39.475 392.343 39.45 392.41 39.45C392.643 39.45 392.76 39.6 392.76 39.9C392.76 39.9333 392.752 40.025 392.735 40.175C392.735 40.3083 392.727 40.4083 392.71 40.475ZM402.508 41.275C402.475 41.5083 402.392 41.7833 402.258 42.1C402.125 42.4167 401.95 42.725 401.733 43.025C401.533 43.3083 401.292 43.55 401.008 43.75C400.742 43.95 400.442 44.05 400.108 44.05C399.608 44.05 399.167 43.8583 398.783 43.475C398.417 43.0917 398.192 42.55 398.108 41.85C398.008 42.1167 397.892 42.425 397.758 42.775C397.625 43.125 397.458 43.45 397.258 43.75C397.058 44.05 396.825 44.3 396.558 44.5C396.308 44.7167 396.008 44.825 395.658 44.825C395.558 44.825 395.483 44.8167 395.433 44.8C395.383 44.7833 395.325 44.7583 395.258 44.725C395.208 44.7083 395.142 44.6917 395.058 44.675C394.992 44.6583 394.892 44.65 394.758 44.65C394.358 44.65 394.017 44.5167 393.733 44.25C393.467 44 393.25 43.675 393.083 43.275C392.917 42.875 392.792 42.4417 392.708 41.975C392.642 41.4917 392.608 41.0417 392.608 40.625C392.608 39.625 392.658 38.675 392.758 37.775C392.875 36.875 393.058 36.0833 393.308 35.4C393.558 34.7 393.883 34.15 394.283 33.75C394.683 33.3333 395.167 33.125 395.733 33.125C396.067 33.125 396.317 33.1583 396.483 33.225C396.667 33.275 396.833 33.3417 396.983 33.425C397.133 33.4917 397.292 33.5667 397.458 33.65C397.642 33.7333 397.892 33.8 398.208 33.85C398.558 34.05 398.8 34.2917 398.933 34.575C399.083 34.8417 399.175 35.1333 399.208 35.45C399.258 35.7667 399.275 36.1 399.258 36.45C399.242 36.7833 399.258 37.1167 399.308 37.45C399.308 37.4667 399.342 37.4917 399.408 37.525C399.492 37.5583 399.583 37.6 399.683 37.65C399.783 37.6833 399.867 37.7417 399.933 37.825C400.017 37.8917 400.058 37.9833 400.058 38.1V38.2C399.892 38.6333 399.792 39.0167 399.758 39.35C399.725 39.6833 399.708 40.0833 399.708 40.55C399.708 40.7833 399.717 41.0417 399.733 41.325C399.767 41.5917 399.808 41.85 399.858 42.1C399.925 42.3333 400.017 42.5333 400.133 42.7C400.25 42.85 400.4 42.925 400.583 42.925C400.783 42.925 400.958 42.825 401.108 42.625C401.275 42.425 401.408 42.2 401.508 41.95C401.625 41.6833 401.717 41.4167 401.783 41.15C401.867 40.8833 401.917 40.6833 401.933 40.55C401.967 40.35 402.05 40.25 402.183 40.25C402.267 40.25 402.342 40.3 402.408 40.4C402.492 40.4833 402.533 40.6417 402.533 40.875C402.533 40.9417 402.533 41.0083 402.533 41.075C402.533 41.125 402.525 41.1917 402.508 41.275ZM397.883 37.225C397.883 37.0417 397.867 36.825 397.833 36.575C397.8 36.325 397.742 36.0917 397.658 35.875C397.575 35.6583 397.45 35.475 397.283 35.325C397.117 35.175 396.892 35.1 396.608 35.1C396.142 35.1 395.758 35.3167 395.458 35.75C395.175 36.1667 394.95 36.6667 394.783 37.25C394.617 37.8167 394.508 38.4083 394.458 39.025C394.408 39.625 394.383 40.1 394.383 40.45C394.383 40.7167 394.392 41.0417 394.408 41.425C394.442 41.7917 394.492 42.1417 394.558 42.475C394.625 42.8083 394.717 43.0917 394.833 43.325C394.967 43.5583 395.133 43.675 395.333 43.675C395.817 43.675 396.183 43.4917 396.433 43.125C396.7 42.7417 396.9 42.275 397.033 41.725C397.167 41.1583 397.258 40.5583 397.308 39.925C397.375 39.275 397.433 38.6833 397.483 38.15C397.517 37.8667 397.592 37.6917 397.708 37.625C397.825 37.5417 397.883 37.4833 397.883 37.45V37.225ZM410.79 37.85C410.557 38.3 410.34 38.775 410.14 39.275C409.94 39.775 409.79 40.1667 409.69 40.45C409.674 40.5333 409.624 40.7083 409.54 40.975C409.474 41.2417 409.39 41.5417 409.29 41.875C409.207 42.1917 409.132 42.5083 409.065 42.825C408.999 43.1417 408.965 43.4 408.965 43.6C408.965 43.6833 408.89 43.7583 408.74 43.825C408.59 43.8917 408.399 43.925 408.165 43.925C407.799 43.925 407.507 43.875 407.29 43.775C407.074 43.675 406.907 43.5167 406.79 43.3C406.69 43.0667 406.624 42.7667 406.59 42.4C406.574 42.0333 406.565 41.5917 406.565 41.075V39.2C406.565 39.0667 406.557 38.9333 406.54 38.8C406.54 38.6667 406.515 38.5833 406.465 38.55C406.382 38.5833 406.274 38.8 406.14 39.2C406.024 39.6 405.907 40.0917 405.79 40.675C405.69 41.2417 405.599 41.8417 405.515 42.475C405.432 43.1083 405.39 43.675 405.39 44.175C405.39 44.3583 405.29 44.4667 405.09 44.5C404.907 44.5333 404.699 44.55 404.465 44.55C404.399 44.55 404.282 44.5333 404.115 44.5C403.965 44.4833 403.807 44.4583 403.64 44.425C403.49 44.3917 403.349 44.3417 403.215 44.275C403.082 44.225 402.999 44.1583 402.965 44.075C402.882 43.8583 402.815 43.5 402.765 43C402.732 42.5 402.715 41.725 402.715 40.675C402.715 40.0583 402.724 39.3417 402.74 38.525C402.774 37.7083 402.807 36.75 402.84 35.65C402.84 35.5 402.832 35.3083 402.815 35.075C402.799 34.825 402.79 34.6833 402.79 34.65C402.79 34.5167 402.84 34.4417 402.94 34.425C403.057 34.3917 403.14 34.375 403.19 34.375C403.307 34.375 403.44 34.3917 403.59 34.425C403.757 34.4417 403.915 34.4667 404.065 34.5C404.232 34.5333 404.382 34.575 404.515 34.625C404.649 34.6583 404.74 34.6917 404.79 34.725V40.75C404.874 40.4167 404.965 40.0333 405.065 39.6C405.182 39.15 405.307 38.7083 405.44 38.275C405.59 37.8417 405.749 37.4417 405.915 37.075C406.082 36.7083 406.257 36.4417 406.44 36.275C406.507 36.225 406.632 36.1917 406.815 36.175C406.999 36.1417 407.149 36.125 407.265 36.125C407.349 36.125 407.449 36.1417 407.565 36.175C407.699 36.1917 407.824 36.225 407.94 36.275C408.057 36.325 408.157 36.3917 408.24 36.475C408.34 36.5417 408.399 36.625 408.415 36.725V40.775V41C408.415 41.1 408.432 41.15 408.465 41.15C408.499 41.15 408.59 40.925 408.74 40.475C408.907 40.025 409.099 39.4917 409.315 38.875C409.532 38.2583 409.765 37.625 410.015 36.975C410.265 36.325 410.49 35.8083 410.69 35.425C410.724 35.3583 410.832 35.325 411.015 35.325C411.215 35.3083 411.39 35.3 411.54 35.3C411.657 35.3 411.815 35.3417 412.015 35.425C412.215 35.4917 412.407 35.5917 412.59 35.725C412.79 35.8583 412.957 36.0083 413.09 36.175C413.24 36.3417 413.315 36.5167 413.315 36.7C413.315 36.7333 413.265 36.8333 413.165 37C413.065 37.15 412.999 37.3083 412.965 37.475C412.849 37.9417 412.765 38.4 412.715 38.85C412.682 39.3 412.665 39.875 412.665 40.575C412.665 40.875 412.674 41.175 412.69 41.475C412.724 41.775 412.765 42.05 412.815 42.3C412.882 42.5333 412.965 42.725 413.065 42.875C413.165 43.025 413.299 43.1 413.465 43.1C413.699 43.1 413.907 43.025 414.09 42.875C414.274 42.7083 414.432 42.4917 414.565 42.225C414.699 41.9583 414.815 41.65 414.915 41.3C415.015 40.9333 415.099 40.5583 415.165 40.175C415.249 39.775 415.399 39.575 415.615 39.575C415.749 39.575 415.832 39.6083 415.865 39.675C415.915 39.7417 415.94 39.8917 415.94 40.125C415.94 40.2583 415.932 40.35 415.915 40.4C415.899 40.6167 415.824 40.9583 415.69 41.425C415.574 41.875 415.399 42.3333 415.165 42.8C414.949 43.25 414.674 43.65 414.34 44C414.007 44.3333 413.624 44.5 413.19 44.5C412.674 44.5 412.249 44.375 411.915 44.125C411.582 43.8917 411.324 43.575 411.14 43.175C410.957 42.7583 410.824 42.2833 410.74 41.75C410.674 41.2167 410.64 40.6583 410.64 40.075V39.9L410.79 37.85Z" fill="#262626"/>
<rect x="306.137" y="20.5664" width="0.5" height="33" fill="#2A2A2A"/>
<defs>
<filter id="filter0_d_508_285" x="0" y="0" width="1440" height="77" filterUnits="userSpaceOnUse" color-interpolation-filters="sRGB">
<feFlood flood-opacity="0" result="BackgroundImageFix"/>
<feColorMatrix in="SourceAlpha" type="matrix" values="0 0 0 0 0 0 0 0 0 0 0 0 0 0 0 0 0 0 127 0" result="hardAlpha"/>
<feOffset dy="2"/>
<feColorMatrix type="matrix" values="0 0 0 0 0 0 0 0 0 0 0 0 0 0 0 0 0 0 0.09 0"/>
<feBlend mode="normal" in2="BackgroundImageFix" result="effect1_dropShadow_508_285"/>
<feBlend mode="normal" in="SourceGraphic" in2="effect1_dropShadow_508_285" result="shape"/>
</filter>
</defs>
</svg>
